<svg xmlns="http://www.w3.org/2000/svg" viewBox="0 0 500 500"><defs><style>.cls-1{fill:#f0f0f0;}.cls-2{fill:#f5f5f5;}.cls-3{fill:#ebebeb;}.cls-4{fill:#e0e0e0;}.cls-10,.cls-15,.cls-19,.cls-22,.cls-5,.cls-6{fill:#fff;}.cls-12,.cls-20,.cls-5{opacity:0.3;}.cls-13,.cls-26,.cls-6{opacity:0.2;}.cls-7{fill:#e6e6e6;}.cls-8,.cls-9{fill:#e74c1b;}.cls-19,.cls-9{opacity:0.8;}.cls-10,.cls-18{opacity:0.6;}.cls-11{fill:#263238;}.cls-14{opacity:0.1;}.cls-16{fill:#ff9750;}.cls-17{fill:#fdad6d;}.cls-21,.cls-22{opacity:0.4;}.cls-23{fill:#a24e3f;}.cls-24{fill:#d7504d;}.cls-25{fill:#b97964;}</style></defs><g id="Background_complete" data-name="Background complete"><path class="cls-1" d="M259.19,451.53l-9.52-146.24.33,0,10.81,146.16Zm-29.53-.1-1.41-.11,11.69-146.08.53,0Zm60.9-4.38-32-143,.7-.15,32.48,142.91Zm-91.83-.24-1.38-.31,33.3-142.72.51.12Zm121.64-8.75L267.73,301.29l.38-.15,53.68,136.37Zm-151.62-.46-1.31-.52L221.72,301l.49.2Zm180-13L276.06,297.35l.49-.28L350,423.91ZM140.47,424l-1.31-.76,74.29-126.33.37.22Zm234.09-16.75L284,292l.28-.23,91.5,114.48Zm-259.87-.83-1.36-1.1,92.5-113.67.15.12Zm283-20.34L290.89,285.71l.34-.36L398.68,385Zm-306-.93-.92-1,107.87-99.2.4.43ZM417.26,361.9,296.94,278.24l.17-.26,121.07,82.58C417.88,361,417.57,361.46,417.26,361.9Zm-345-1.15-.86-1.27L193,277.64l.22.32Zm361-26.06L301.57,270.37l.3-.62L433.8,333.56Zm-376.7-1c-.22-.47-.44-.93-.67-1.4l132.44-62.75.17.35Zm388.29-27.9L305.14,261.5l.1-.34,140.07,43.09C445.16,304.76,445,305.27,444.84,305.77ZM45.05,304.45,44.62,303,185,260.8l.14.43Zm407-29.38L307.23,252.59l.08-.54,145,21.64Zm-414-1.13-.21-1.49,145.06-20.79.07.43Zm416.48-29.73L308,242.91v-.61H454.56v1.91Zm-272.27-1.48H35.74v-1.35l146.55.76Zm125.06-9.37-.05-.31L452.18,211c.09.54.17,1.07.24,1.61ZM183,233.14,38,211.75c.07-.51.15-1,.23-1.52l144.81,22.51Zm122.4-8.64-.2-.67,140-43.28.37,1.19ZM185,224.12l-140.09-43,.43-1.38,139.81,43.94Zm117-8.38-.25-.52,131.89-63.89.59,1.22Zm-113.62-.28-132-63.63.59-1.22,131.68,64.32Zm109-7.82-.37-.55L418,124.3l.72,1Zm-104.28-.38L72,124.78l.85-1.25L193.39,206.9ZM291.36,200l-.19-.2L398.41,99.88l1.13,1.23ZM199,199.88,91.48,100.33c.34-.37.68-.74,1-1.1L199.33,199.56Zm85.51-6.29-.32-.26L375.5,78.69l1.19,1ZM206,193.43,114.33,79.06l1.24-1,90.67,115.13Zm70.9-5.15-.42-.24,73.2-127,1.25.73Zm-63.15-.15L140.14,61.38l1.3-.75,72.64,127.29Zm54.67-4L268,184,321.38,47.5l1.43.57Zm-46.23-.09L168.29,47.75l1.44-.56,52.78,136.72Zm37.37-2.69-.38-.09,32.18-143,1.5.34ZM231,181.31,198.31,38.45l1.53-.34,31.52,143.12Zm19.23-1.39-.41,0L260.4,33.73l1.52.11Zm-9.94,0-11-146.14,1.52-.1,9.94,146.21Z"/><path class="cls-2" d="M366.71,193.91l16,29.49s10.16.83,9.69,8.3-7.14,7-11.8,5.35c0,0-3.64,6-8.05,2.67s-1.16-12.79-1.16-12.79L354.8,198.25Z"/><path class="cls-3" d="M364.07,157.85l-.24-1.77-.67-4.73s2.06-3.78,2.77-5.49a40.71,40.71,0,0,0,1.48-5.57l0-4.9a43.12,43.12,0,0,1-1.83-4c-1-4.09-2.24-5.36-2.52-6.4-1.31-5,2.8-6.57-2.34-9.06s-8.19-.88-9.08-2.48-6.51-7.22-6.51-7.22l-4.09.52-5.24-3.07L327,98l-5.65-1.55-2.92,1.11-4.51,3.11-4.74,5s-3.37,4.79-4.31,5.35-3.84,6.55-3.84,6.55.75,8.1.86,8.67-4.62,5.52-4.62,5.52l-3.35,12.67,3.25,6.6,2.21,3.59s.24,3.05.27,5,.48,9.1.48,9.1,4.73,4,6.07,4.92a15,15,0,0,1,4.46,5A21.43,21.43,0,0,0,314,183a46.21,46.21,0,0,1,6.14,1.68c2.39.92,10.56,2.88,10.56,2.88s4,4.64,5,4.08a5.28,5.28,0,0,1,3.71-.08c1.23.34,4,1.65,4.91,1.35s5.29,3.89,5.29,3.89l5.75,5.1s1.23,3.33,1.43,2.57,7.57-1.74,7.77-2.5,4.15-9.73,4.15-9.73l-3.09-11.17L367,175.5s2.34-3.46,2.26-4.54a19.71,19.71,0,0,0-1.94-7.6L364,160"/><path class="cls-4" d="M322,140.15l3.92,1.07,2.09-7.9-3.43,1.23Z"/><path class="cls-4" d="M318.23,136.43l.48-2-3.86-.94.63,1.75Z"/><path class="cls-4" d="M318.44,97.56l-4.51,3.11-4.74,5s-3.37,4.79-4.31,5.35-3.84,6.55-3.84,6.55.75,8.1.86,8.67-4.62,5.52-4.62,5.52l-3.35,12.67,3.25,6.6,2.21,3.59s.24,3.05.27,5,.48,9.1.48,9.1,4.73,4,6.07,4.92a15,15,0,0,1,4.46,5A21.43,21.43,0,0,0,314,183a46.21,46.21,0,0,1,6.14,1.68c2.39.92,10.56,2.88,10.56,2.88s4,4.64,5,4.08a5.28,5.28,0,0,1,3.71-.08c1.23.34,4,1.65,4.91,1.35s5.29,3.89,5.29,3.89l3.25,2.88c.19-1.31.31-2.27.31-2.27.33-2.25-3.17-4.37-3.52-5.37s-4.8-1.68-6.32-1.78-2.36-1.6-2.48-3.45a19.22,19.22,0,0,0-2-6.38c-.84-1.51-4.32-1.18-4.32-1.18l-3.19-3.11s-6.1-2.62-6.8-3.45-.94-6.95-.94-6.95l-.37-6.79L318,157.54l-2.27-1.89a20.33,20.33,0,0,1-5.94-6.73l2.93-8.75-2.05-4.07-4.54-6c.11-1.56,2.2-8.32,2.52-9.51s9.18-1.31,9.18-1.31l.06-8,0-5.74L327,98l-5.65-1.55Z"/><path class="cls-5" d="M346.55,110.7c0,.75,3.64,6.22,3.64,6.22l8.11,2.22-.5,7.34-1.82-5-7.53-2.56Z"/><path class="cls-3" d="M104.37,223l2.36-7.22,6.58-6.65,2-6.14,3.82-4.35,1.56-4.76,1.88-5.72-4.72-6.34L114.72,178l-1.25-4.26-3.36-4.85,2.68-16.72,6.57-7.85s5.52-3.4,5.87-4.48l5.86-5.68,9.26-.17,8.87-5.09,9,3,4.81,0s8.78.07,10.34.18,8.78.08,8.78.08c4-1.1,7.86,9,7.86,9l.88,7.09c-1,6.86-4.86,14.81-4.86,14.81l-4.29,7-5.29.27-10.23-1.75-4.8,2.43-6.85.15-2.9-3.35-6,2L150,185.18l.05,9.62-5.47,6.93-4.47.21-1.65,7.47-8.76,2.32-6,4.84-7.78,7.86-8.38,6C103.92,229.29,102.71,228.1,104.37,223Z"/><path class="cls-6" d="M126.53,164l-.82-4.65s-1.7-1.49-1.38-2.48,1.2-3.67,1.2-3.67l2.79-1.59,2.76.9,1.52-4.66-2.52,3.4-2.85-.94C125,152.42,123,154.4,123,154.4l0,4.85,1.56,1.92Z"/><path class="cls-6" d="M119.79,212.71l-.59-3.36s-1.23-1.08-1-1.79.87-2.65.87-2.65l2-1.14,2,.65,1.1-3.37-1.81,2.45-2.06-.67c-1.6,1.51-3.09,2.94-3.09,2.94v3.49l1.12,1.39Z"/><path class="cls-4" d="M190.36,143.7c.09.69-4.08,1.09-5.77.76s-1.33,1.86-1,2.65-1.87,4-1.87,4c-.47.75,0,4.12-1.76,5.37s-1.78.56-2.75,0a25.22,25.22,0,0,1-3.32-3.15l-3.37.49-4.54.58-1.49,4.55-4.47-.32s-.34,1.72-3.28,5.79c-1.27,1.77-4.4.16-5.09.17s-1.52-2.34-1.52-2.34L146,160.89l-3.81.81a23.59,23.59,0,0,0-1.77,5.37l2.73,2.5-1.84,3.52-1.42,4.34a39.23,39.23,0,0,0-.66,4.82l1.36,3.2.26,5.12-3.31,4.18.37,4.79L135,202.4,129.68,205l.15,3.71L127.16,212l-3.3.29-3.42,4.15a26.09,26.09,0,0,1-2.94,3.39l-2,2a7,7,0,0,0-2,4.31v0l2.35-1.7,7.78-7.86,6-4.84,8.76-2.32,1.65-7.47,4.47-.21L150,194.8l-.05-9.62-4.28-15.41,6-2,2.9,3.35,6.85-.15,4.8-2.43,10.23,1.75,5.29-.27,4.29-7s3.81-7.95,4.86-14.81Z"/><path class="cls-4" d="M443.92,306.09H263.17a5.87,5.87,0,0,1-5.86-5.86V37a5.87,5.87,0,0,1,5.86-5.86H443.92A5.87,5.87,0,0,1,449.78,37V300.23A5.87,5.87,0,0,1,443.92,306.09ZM263.17,31.34A5.62,5.62,0,0,0,257.56,37V300.23a5.62,5.62,0,0,0,5.61,5.61H443.92a5.61,5.61,0,0,0,5.61-5.61V37a5.61,5.61,0,0,0-5.61-5.61Z"/><path class="cls-4" d="M235.49,306.09H54.75a5.87,5.87,0,0,1-5.87-5.86V37a5.87,5.87,0,0,1,5.87-5.86H235.49A5.86,5.86,0,0,1,241.35,37V300.23A5.86,5.86,0,0,1,235.49,306.09ZM54.75,31.34A5.62,5.62,0,0,0,49.13,37V300.23a5.62,5.62,0,0,0,5.62,5.61H235.49a5.61,5.61,0,0,0,5.61-5.61V37a5.61,5.61,0,0,0-5.61-5.61Z"/><rect class="cls-4" y="367.16" width="500" height="0.25"/><rect class="cls-4" x="51.67" y="381.42" width="16.06" height="0.25"/><rect class="cls-4" x="170.35" y="378.71" width="53.53" height="0.25"/><rect class="cls-4" x="68.73" y="390.71" width="36.25" height="0.25"/><rect class="cls-4" x="378.35" y="378.58" width="43.19" height="0.25"/><rect class="cls-4" x="430.45" y="378.58" width="6.33" height="0.25"/><rect class="cls-4" x="316.21" y="384.81" width="53.89" height="0.25"/><polygon class="cls-1" points="65.03 171.65 68.53 186.81 83.69 190.31 68.53 193.81 65.03 208.97 61.53 193.81 46.37 190.31 61.53 186.81 65.03 171.65"/><polygon class="cls-1" points="403.65 251.57 407.15 266.74 422.31 270.24 407.15 273.74 403.65 288.9 400.15 273.74 384.99 270.24 400.15 266.74 403.65 251.57"/><polygon class="cls-7" points="252.23 79.14 253.65 85.3 259.81 86.72 253.65 88.14 252.23 94.3 250.81 88.14 244.64 86.72 250.81 85.3 252.23 79.14"/><polygon class="cls-7" points="408.97 180.55 410.39 186.71 416.55 188.13 410.39 189.55 408.97 195.71 407.55 189.55 401.39 188.13 407.55 186.71 408.97 180.55"/><polygon class="cls-7" points="302.1 163.13 302.94 166.79 306.6 167.63 302.94 168.48 302.1 172.13 301.26 168.48 297.6 167.63 301.26 166.79 302.1 163.13"/><polygon class="cls-7" points="378.07 84.4 379.8 91.91 387.31 93.64 379.8 95.38 378.07 102.89 376.33 95.38 368.83 93.64 376.33 91.91 378.07 84.4"/><polygon class="cls-7" points="99.54 256.64 100.38 260.3 104.04 261.14 100.38 261.99 99.54 265.65 98.69 261.99 95.03 261.14 98.69 260.3 99.54 256.64"/><polygon class="cls-7" points="160.29 72.59 161.32 77.05 165.78 78.08 161.32 79.11 160.29 83.56 159.26 79.11 154.8 78.08 159.26 77.05 160.29 72.59"/></g><g id="Shadow"><path class="cls-2" d="M454.59,420.15c0,26.57-92.95,48.11-207.6,48.11s-207.6-21.54-207.6-48.11,92.94-48.1,207.6-48.1S454.59,393.59,454.59,420.15Z"/></g><g id="Soda_1" data-name="Soda 1"><rect class="cls-8" x="227.69" y="95.9" width="12.33" height="129.22"/><polyline class="cls-9" points="227.69 160.51 240.02 149.16 240.02 130.77 227.69 141.5 227.69 159.27"/><polyline class="cls-9" points="227.69 196.12 240.02 184.77 240.02 166.38 227.69 177.11 227.69 194.88"/><polyline class="cls-9" points="227.69 126.89 240.02 115.54 240.02 97.15 227.69 107.88 227.69 125.66"/><polygon class="cls-8" points="230.59 195.77 225.09 195.77 159.89 195.77 166.96 265.47 172.01 275.03 181.6 380.71 186.65 386.33 186.65 392.51 225.09 392.51 230.59 392.51 269.03 392.51 269.03 386.33 274.08 380.71 283.67 275.03 288.72 265.47 295.79 195.77 230.59 195.77"/><polygon class="cls-10" points="230.59 195.77 225.09 195.77 159.89 195.77 166.96 265.47 172.01 275.03 181.6 380.71 186.65 386.33 186.65 392.51 225.09 392.51 230.59 392.51 269.03 392.51 269.03 386.33 274.08 380.71 283.67 275.03 288.72 265.47 295.79 195.77 230.59 195.77"/><polygon class="cls-11" points="154.84 198.97 158.05 191.57 296.23 191.57 300.64 198.97 154.84 198.97"/><polygon class="cls-10" points="154.84 198.97 158.05 191.57 296.23 191.57 300.64 198.97 154.84 198.97"/><path class="cls-11" d="M163.16,192.19a8,8,0,0,1-2,5.29,8,8,0,0,1,2-5.29Z"/><path class="cls-11" d="M168.7,192.19a8,8,0,0,1-2,5.29,8,8,0,0,1,2-5.29Z"/><path class="cls-11" d="M174.24,192.19a8,8,0,0,1-2,5.29,8,8,0,0,1,2-5.29Z"/><path class="cls-11" d="M179.78,192.19a8,8,0,0,1-2,5.29,8.07,8.07,0,0,1,2-5.29Z"/><path class="cls-11" d="M185.32,192.19a8,8,0,0,1-2,5.29,8.07,8.07,0,0,1,2-5.29Z"/><path class="cls-11" d="M190.86,192.19a8,8,0,0,1-2,5.29,8.07,8.07,0,0,1,2-5.29Z"/><path class="cls-11" d="M196.4,192.19a8,8,0,0,1-2,5.29,8.07,8.07,0,0,1,2-5.29Z"/><path class="cls-11" d="M201.94,192.19a8,8,0,0,1-2,5.29,8.07,8.07,0,0,1,2-5.29Z"/><path class="cls-11" d="M207.48,192.19a8,8,0,0,1-2,5.29,8.07,8.07,0,0,1,2-5.29Z"/><path class="cls-11" d="M213,192.19a8,8,0,0,1-2,5.29,8.06,8.06,0,0,1,2-5.29Z"/><path class="cls-11" d="M218.55,192.19a8,8,0,0,1-2,5.29,8.06,8.06,0,0,1,2-5.29Z"/><path class="cls-11" d="M224.09,192.19a8,8,0,0,1-2,5.29,8.06,8.06,0,0,1,2-5.29Z"/><path class="cls-11" d="M229.18,192.06a8.06,8.06,0,0,1-1.12,5.56,8.09,8.09,0,0,1,1.12-5.56Z"/><path class="cls-11" d="M234.47,192a8.07,8.07,0,0,1-.61,5.63,8,8,0,0,1,.61-5.63Z"/><path class="cls-11" d="M294.86,192.19a7.86,7.86,0,0,1,1.82,5.29,7.81,7.81,0,0,1-1.82-5.29Z"/><path class="cls-11" d="M289.88,192.19a7.86,7.86,0,0,1,1.82,5.29,7.91,7.91,0,0,1-1.82-5.29Z"/><path class="cls-11" d="M284.91,192.19a7.85,7.85,0,0,1,1.81,5.29,7.85,7.85,0,0,1-1.81-5.29Z"/><path class="cls-11" d="M279.93,192.19a7.86,7.86,0,0,1,1.82,5.29,7.86,7.86,0,0,1-1.82-5.29Z"/><path class="cls-11" d="M275,192.19a7.86,7.86,0,0,1,1.82,5.29,7.91,7.91,0,0,1-1.82-5.29Z"/><path class="cls-11" d="M270,192.19a7.85,7.85,0,0,1,1.81,5.29,7.85,7.85,0,0,1-1.81-5.29Z"/><path class="cls-11" d="M265,192.19a7.86,7.86,0,0,1,1.82,5.29,7.86,7.86,0,0,1-1.82-5.29Z"/><path class="cls-11" d="M255.05,192.19a7.8,7.8,0,0,1,1.81,5.29,7.85,7.85,0,0,1-1.81-5.29Z"/><path class="cls-11" d="M260.85,192.19a8,8,0,0,1,2,5.29,8,8,0,0,1-2-5.29Z"/><path class="cls-11" d="M249.77,192.19a8,8,0,0,1,2,5.29,8,8,0,0,1-2-5.29Z"/><path class="cls-11" d="M244.23,192.19a8,8,0,0,1,2,5.29,8,8,0,0,1-2-5.29Z"/><path class="cls-11" d="M239.19,192.05a8.1,8.1,0,0,1,1,5.57,8,8,0,0,1-1-5.57Z"/><polygon class="cls-12" points="160.62 203.28 160.21 198.97 295.47 198.97 294.89 204.26 160.62 203.28"/><path class="cls-8" d="M166.08,212.16a419.78,419.78,0,0,1,44.18-2.75c26.23-.38,79.62,0,79.62,0l-97.71,30.22Z"/><path class="cls-13" d="M166.08,212.16a419.78,419.78,0,0,1,44.18-2.75c26.23-.38,79.62,0,79.62,0l-97.71,30.22Z"/><path class="cls-8" d="M190.58,386.7v-3.25l-5.24-5.83-9.53-105-5.06-9.58-4.67-50.89c25.75,29.09,72-2.75,123.8-2.75l-6.09,53.64-5.06,9.58-9.54,105L264,383.45v3.25Z"/><polygon class="cls-12" points="166.96 265.47 288.72 265.47 283.67 275.03 172.01 275.03 166.96 265.47"/><path class="cls-6" d="M223.12,276.1c-5.31-2.58-10.4-5.14-15.18-7.66l-2.45-1.31c-4.45-2.39-8.59-4.75-12.35-7.07a4.57,4.57,0,0,1-1.88-6.19,215.48,215.48,0,0,0,14.51-27.12,4.57,4.57,0,0,1,6.2-1.87c7.07,1.72,18.39,8.71,30,16a4.58,4.58,0,0,1,1.87,6.19c-7.16,12.75-11.52,21-14.51,27.12A4.56,4.56,0,0,1,223.12,276.1Z"/><g class="cls-14"><path class="cls-15" d="M221.43,268.1a4.22,4.22,0,0,0-1.87-1.27c-4.85-2.12-10.28-4.14-12.84-8.77-1.22-2.2-5.21-3.4-5.27-5.91-.16-6.34,5.37-14.08,9-19.26a6.09,6.09,0,0,0,1.1-2,1.83,1.83,0,0,0-.68-2c-.66-.38-2.92,0-2.85.72A163.23,163.23,0,0,0,197.48,251c-.89,2.18-1.73,4.67-.75,6.81.77,1.65,2.44,2.66,4,3.55a161.77,161.77,0,0,0,18.44,8.73,2.21,2.21,0,0,0,2,.1A1.51,1.51,0,0,0,221.43,268.1Z"/></g><g class="cls-14"><path class="cls-15" d="M229.35,240.63a25.72,25.72,0,0,0,4,2.06c1.32.7,2.57,1.9,2.59,3.39,0,1.26-.84,2.34-1.56,3.37a20.81,20.81,0,0,0-2.73,5.58,1.15,1.15,0,0,0,1.88,1.18,24.55,24.55,0,0,0,3.88-5,14.21,14.21,0,0,0,1.83-3.6,4.75,4.75,0,0,0-.45-3.9,7,7,0,0,0-3.21-2.14l-5-2.14a1.44,1.44,0,0,0-1.19-.13c-.37.18-.37.89,0,.91"/></g><path class="cls-6" d="M232,287.79c2.27-4,4.51-7.89,6.7-11.5.38-.62.75-1.24,1.13-1.85,2.07-3.35,4.09-6.47,6.05-9.28a3.11,3.11,0,0,1,4.6-1,157,157,0,0,0,18.39,14,4,4,0,0,1,.87,5.13c-1.79,5.51-7.7,14-13.88,22.63a3.12,3.12,0,0,1-4.61,1c-8.61-6.85-14.23-11-18.39-14A4,4,0,0,1,232,287.79Z"/><g class="cls-14"><path class="cls-15" d="M237.85,287.14a3.35,3.35,0,0,0,1.06-1.4c1.9-3.69,3.78-7.88,7.31-9.53,1.68-.78,2.85-3.88,4.67-3.71,4.58.43,9.72,5.53,13.16,8.92a4.48,4.48,0,0,0,1.34,1.05,1.23,1.23,0,0,0,1.51-.37c.33-.49.26-2.33-.3-2.34A116.93,116.93,0,0,0,252,269.42c-1.49-.9-3.22-1.78-4.84-1.18a6.59,6.59,0,0,0-2.87,2.92,135.83,135.83,0,0,0-7.72,14,2,2,0,0,0-.23,1.63A1,1,0,0,0,237.85,287.14Z"/></g><g class="cls-14"><path class="cls-15" d="M257,295.86a20.43,20.43,0,0,0-1.79,3,3.1,3.1,0,0,1-2.65,1.78,4.49,4.49,0,0,1-2.3-1.54,15,15,0,0,0-3.8-2.68c-.78-.37-1.5.65-1,1.41a19.23,19.23,0,0,0,3.32,3.54,10,10,0,0,0,2.45,1.78,3.09,3.09,0,0,0,2.84,0,5.49,5.49,0,0,0,1.79-2.38l1.93-3.83A1.26,1.26,0,0,0,258,296c-.1-.31-.61-.38-.66-.05"/></g><path class="cls-6" d="M195.22,330.5c-2.57-5.2-5-10.25-7.15-15.07-.38-.83-.75-1.66-1.11-2.48-2-4.52-3.75-8.83-5.22-12.86-1-2.26.29-4.79,2.89-5.64a261.19,261.19,0,0,0,31.66-10.39,5.36,5.36,0,0,1,6.53,2.55c4.66,5.69,9.08,17.85,13.49,30.42,1,2.26-.3,4.78-2.9,5.64-15.17,4.66-24.77,7.87-31.66,10.38A5.36,5.36,0,0,1,195.22,330.5Z"/><g class="cls-14"><path class="cls-15" d="M199.58,323.68a3.68,3.68,0,0,0-.65-2.1c-2.52-4.57-5.6-9.45-4.41-14.39.57-2.35-1.9-5.72-.14-7.57,4.44-4.66,14.63-6.76,21.43-8.17a7.42,7.42,0,0,0,2.35-.74,1.66,1.66,0,0,0,.89-1.88c-.27-.69-2.41-1.86-2.9-1.27a195.05,195.05,0,0,0-24.24,8.71c-2.31,1-4.8,2.28-5.52,4.43-.56,1.68.11,3.46.81,5.1a144,144,0,0,0,9.11,17.89,2.38,2.38,0,0,0,1.64,1.36A1.56,1.56,0,0,0,199.58,323.68Z"/></g><g class="cls-14"><path class="cls-15" d="M226,308.89c.3,1.41,1.24,2.64,1.83,4s.77,3-.29,4.07c-.89.92-2.38,1.16-3.73,1.45a24.7,24.7,0,0,0-6.3,2.29c-1.09.58-.56,2.07.72,2a30.88,30.88,0,0,0,6.86-1.17,16.93,16.93,0,0,0,4.12-1.45,4.47,4.47,0,0,0,2.43-3.08,6.11,6.11,0,0,0-1.13-3.56l-2.65-4.7a1.51,1.51,0,0,0-.9-.85c-.45-.1-1,.41-.63.68"/></g><path class="cls-6" d="M266.52,356.63c-5,1.24-9.82,2.37-14.42,3.36l-2.37.49c-4.3.89-8.39,1.63-12.19,2.18a4,4,0,0,1-4.71-3.09,188.51,188.51,0,0,0-5.46-26.21,4,4,0,0,1,3.09-4.71c5.69-2.8,17.15-4.45,29-6a4,4,0,0,1,4.71,3.09c2.34,12.51,4.05,20.46,5.46,26.21A4,4,0,0,1,266.52,356.63Z"/><g class="cls-14"><path class="cls-15" d="M260.92,352.23a3.78,3.78,0,0,0-2,.19c-4.42,1.29-9.18,3-13.47,1.32-2.05-.79-5.38.64-6.83-1-3.64-4.14-4.27-12.4-4.71-17.9a5.37,5.37,0,0,0-.38-1.95,1.61,1.61,0,0,0-1.58-1c-.65.11-2,1.61-1.5,2.07a142.7,142.7,0,0,0,4.87,20.19c.62,1.95,1.45,4.08,3.3,5a7.61,7.61,0,0,0,4.68.12,140.06,140.06,0,0,0,17.19-4.48c.59-.19,1.26-.47,1.42-1.07A1.31,1.31,0,0,0,260.92,352.23Z"/></g><g class="cls-14"><path class="cls-15" d="M250.87,329.45a21,21,0,0,0,3.8-.84,3.74,3.74,0,0,1,3.62.83,5.33,5.33,0,0,1,.85,3.12,17.94,17.94,0,0,0,1.28,5.25,1,1,0,0,0,1.92-.26,21.33,21.33,0,0,0-.21-5.52,12.5,12.5,0,0,0-.79-3.43,4.11,4.11,0,0,0-2.48-2.35,6.12,6.12,0,0,0-3.34.36L251,328a1.27,1.27,0,0,0-.88.57c-.14.33.25.81.54.59"/></g><path class="cls-6" d="M214.7,374.57c-4-1.53-7.85-3.05-11.47-4.57l-1.85-.79c-3.37-1.44-6.52-2.88-9.39-4.31a3.32,3.32,0,0,1-1.76-4.36A156.66,156.66,0,0,0,199,340a3.32,3.32,0,0,1,4.36-1.75c5.22.79,13.86,5.11,22.71,9.67a3.31,3.31,0,0,1,1.76,4.35c-4.36,9.68-7,15.95-8.75,20.55A3.33,3.33,0,0,1,214.7,374.57Z"/><g class="cls-14"><path class="cls-15" d="M213,368.89a3,3,0,0,0-1.44-.8c-3.64-1.22-7.7-2.34-9.85-5.52-1-1.51-4-2.12-4.19-3.93-.53-4.58,3-10.53,5.29-14.51a4.35,4.35,0,0,0,.67-1.51,1.34,1.34,0,0,0-.62-1.42c-.5-.23-2.11.16-2,.71A119.15,119.15,0,0,0,194.54,358c-.5,1.63-.95,3.49-.1,5a6.38,6.38,0,0,0,3.15,2.31,115.64,115.64,0,0,0,13.9,5.12,1.6,1.6,0,0,0,1.48-.05A1.1,1.1,0,0,0,213,368.89Z"/></g><g class="cls-14"><path class="cls-15" d="M216.93,348.51a18.88,18.88,0,0,0,3,1.23A3.13,3.13,0,0,1,222,352a4.48,4.48,0,0,1-.91,2.54,15.06,15.06,0,0,0-1.62,4.21.84.84,0,0,0,1.44.73,17.56,17.56,0,0,0,2.48-3.88,10.13,10.13,0,0,0,1.09-2.72,3.39,3.39,0,0,0-.58-2.79,5.1,5.1,0,0,0-2.45-1.35l-3.77-1.22a1.06,1.06,0,0,0-.87,0c-.26.16-.21.67.09.66"/></g><path class="cls-15" d="M274.69,228.44c5,3.88-.1,12.5-5.75,8.55a5.54,5.54,0,0,1-.32-8.27c-2.41,2.95-.66,8.42,3.35,8.25s5.36-5.76,2.72-8.53Z"/><path class="cls-15" d="M262,224.33c3.66,2.67,0,8.83-4,6a3.82,3.82,0,0,1-.13-5.8c-1.51,2-.34,5.61,2.29,5.51s3.54-3.77,1.87-5.7Z"/><path class="cls-15" d="M171.74,265.62c35.59-.66,75.15-.65,110.76,0-35.62.65-75.17.66-110.76,0Z"/></g><g id="Fries"><polygon class="cls-16" points="304.47 260.35 309.46 310.76 320.23 309.36 314.07 258.79 304.47 260.35"/><polygon class="cls-12" points="304.47 260.35 309.46 310.76 320.23 309.36 314.07 258.79 304.47 260.35"/><polygon class="cls-16" points="339.78 314.93 338.3 263.06 349.14 262.36 352.82 313.17 339.78 314.93"/><polygon class="cls-12" points="339.78 314.93 338.3 263.06 349.14 262.36 352.82 313.17 339.78 314.93"/><polygon class="cls-16" points="388.15 269.25 379.62 320.44 368.86 319.04 375.01 268.47 388.15 269.25"/><polygon class="cls-12" points="388.15 269.25 379.62 320.44 368.86 319.04 375.01 268.47 388.15 269.25"/><path class="cls-16" d="M307.94,349.7c-.62-3.08-17.77-59.13-17.77-59.13l10.72-3.86L316.8,343Z"/><path class="cls-17" d="M302.05,321.14c0-3.14-4.18-44.94-4.18-44.94l11.29-1.56,4.58,44.54Z"/><path class="cls-16" d="M329,316.53c0-3.14-4.18-44.94-4.18-44.94L336.09,270l4.58,44.54Z"/><path class="cls-16" d="M355.29,320.46c0-3.14-5.22-61.52-5.22-61.52l11.3-1.57,4,58.36Z"/><path class="cls-16" d="M368.44,343.73c.73-3.06,8.77-61.12,8.77-61.12l11.35,1-9.26,57.75Z"/><path class="cls-17" d="M348,319c0-3.14-.81-51.42-.81-51.42l11.29-1.56,1.21,51Z"/><path class="cls-17" d="M333.22,326.05c.29-3.13-.25-45.13-.25-45.13l11.38-.58.69,44.78Z"/><path class="cls-17" d="M317.32,318.78c0-3.14-3.58-61.41-3.58-61.41l12.91,2.8,2.66,55.75Z"/><path class="cls-17" d="M363.21,320.81c.27-2.55,1-45,1-45l11.22-1.87-2.26,45.5Z"/><path class="cls-12" d="M293.65,305.32c.42,0,25-3.18,25-3.18l4.87,10.42,43.69-1.86,5.7-10h13l-1.38,5.95L369.33,318.2s-31.21-.15-31,0-19.7,1.72-19.7,1.72-6.1-7-6.52-6.75S294,309.1,294,309.1Z"/><polygon class="cls-8" points="301.73 391.07 293.65 305.32 314.47 304.45 320.74 313.85 369.17 312.1 373.78 301.96 390.29 301.27 383.14 391.83 301.73 391.07"/><path class="cls-5" d="M297.87,352.05s47.05-24.18,52.2-17.48,39.2-18,39.2-18l-2.8,33.17s-25.54,18.16-33,14.63-4.19-6.62-10.22-4.71S300.72,380.34,300.69,380,297.87,352.05,297.87,352.05Z"/></g><g id="Soda_2" data-name="Soda 2"><path class="cls-11" d="M462.46,430.85c0,3.88-11.49,7-25.66,7s-25.66-3.15-25.66-7,11.49-7,25.66-7S462.46,427,462.46,430.85Z"/><path class="cls-10" d="M462.46,430.85c0,3.88-11.49,7-25.66,7s-25.66-3.15-25.66-7,11.49-7,25.66-7S462.46,427,462.46,430.85Z"/><path class="cls-11" d="M441.48,435.14c0,.05,0,.08,0,.07S441.53,435.16,441.48,435.14Z"/><path class="cls-11" d="M432,435.21s0,0,0-.07S432,435.18,432,435.21Z"/><path class="cls-11" d="M473.54,337.36c-.75-5.26-5.63-10.52-6.19-10.71l-30.57,3.58-30.57-3.58c-.56.19-5.44,5.45-6.19,10.71-.68,4.71-.14,66.21,0,79a13.76,13.76,0,0,0,5.1,10.8,15.62,15.62,0,0,0,6,2.79v-.21s12.07,5.18,21,5.14h9.34c8.94,0,21-4,21-4V430a15.62,15.62,0,0,0,6-2.79,13.76,13.76,0,0,0,5.1-10.8C473.68,403.57,474.22,342.07,473.54,337.36Z"/><path class="cls-10" d="M473.54,337.36c-.75-5.26-5.63-10.52-6.19-10.71l-30.57,3.58-30.57-3.58c-.56.19-5.44,5.45-6.19,10.71-.68,4.71-.14,66.21,0,79a13.76,13.76,0,0,0,5.1,10.8,15.62,15.62,0,0,0,6,2.79v-.21s12.07,5.18,21,5.14h9.34c8.94,0,21-4,21-4V430a15.62,15.62,0,0,0,6-2.79,13.76,13.76,0,0,0,5.1-10.8C473.68,403.57,474.22,342.07,473.54,337.36Z"/><g class="cls-18"><path class="cls-15" d="M441.48,435.14c0,.05,0,.08,0,.07S441.53,435.16,441.48,435.14Z"/><path class="cls-15" d="M432,435.21s0,0,0-.07S432,435.18,432,435.21Z"/></g><ellipse class="cls-11" cx="436.04" cy="320.51" rx="33.06" ry="14.65"/><ellipse class="cls-19" cx="436.04" cy="320.51" rx="33.06" ry="14.65"/><path class="cls-11" d="M469.09,324.07c0,8.09-14.8,14.65-33,14.65S403,332.16,403,324.07c0-1-.4-3.35,0-4.31,3.08-6.67,17-10.34,33-10.34s30,3.67,33,10.35C469.54,320.72,469.09,323.06,469.09,324.07Z"/><path class="cls-19" d="M469.09,324.07c0,8.09-14.8,14.65-33,14.65S403,332.16,403,324.07c0-1-.4-3.35,0-4.31,3.08-6.67,17-10.34,33-10.34s30,3.67,33,10.35C469.54,320.72,469.09,323.06,469.09,324.07Z"/><ellipse class="cls-11" cx="436.04" cy="320.32" rx="30.24" ry="12.34"/><ellipse class="cls-10" cx="436.04" cy="320.32" rx="30.24" ry="12.34"/><g class="cls-20"><path d="M435.82,311.71c15.14,0,27.65,4.55,29.86,10.48a5.52,5.52,0,0,0,.38-1.87c0-6.81-13.54-12.33-30.24-12.33s-30.24,5.52-30.24,12.33a5.29,5.29,0,0,0,.38,1.87C408.16,316.26,420.67,311.71,435.82,311.71Z"/></g><path class="cls-8" d="M401.63,332.66s11.49,10.32,35.15,11.12c24.25.81,35.15-11.12,35.15-11.12s2.06,4.43,1.95,7.25c-.09,2.16,0,49.9,0,74,0,9.92-4.5,14.1-11.4,16.79-17.11,4.91-34.22,4.31-51.32-.32a13.19,13.19,0,0,1-11.46-13.29V337.36A15.53,15.53,0,0,1,401.63,332.66Z"/><g class="cls-21"><path class="cls-15" d="M432.77,350.82a66.05,66.05,0,0,1-33.09-11.66v25c40.27,0,36.1,43.39,52.26,35.6a105.21,105.21,0,0,0,21.91-14.21c0-21.79,0-44.21,0-45.67v-.27l-.26.17A66,66,0,0,1,432.77,350.82Z"/></g><g class="cls-20"><path d="M473.2,419.75c-23.67,7.69-49.41,8.66-73.15.51a13.13,13.13,0,0,0,11.09,10.11c17.1,4.63,34.21,5.23,51.32.32C467.82,428.61,471.71,425.61,473.2,419.75Z"/></g><path class="cls-11" d="M442.18,313.07c-4.66-.95-9.14-.55-11.41.79s-7.5,4.13-7.75,7.43,5.8,4.15,6.17,4.19a24.45,24.45,0,0,0,10.28-.78c3.34-1.06,6-4.3,7.69-6.65S446.85,314,442.18,313.07Zm-9.71,10c-3.36,0-6.09-1.06-6.09-2.36s2.73-2.36,6.09-2.36,6.09,1.06,6.09,2.36S435.84,323.1,432.47,323.1ZM443.32,317c-1,1-3.77,0-5.58-.45-1.42-.33-4.95-.06-3.78-1.6s5.13-.82,6.54-.54S445,315.44,443.32,317Z"/><path class="cls-19" d="M442.18,313.07c-4.66-.95-9.14-.55-11.41.79s-7.5,4.13-7.75,7.43,5.8,4.15,6.17,4.19a24.45,24.45,0,0,0,10.28-.78c3.34-1.06,6-4.3,7.69-6.65S446.85,314,442.18,313.07Zm-9.71,10c-3.36,0-6.09-1.06-6.09-2.36s2.73-2.36,6.09-2.36,6.09,1.06,6.09,2.36S435.84,323.1,432.47,323.1ZM443.32,317c-1,1-3.77,0-5.58-.45-1.42-.33-4.95-.06-3.78-1.6s5.13-.82,6.54-.54S445,315.44,443.32,317Z"/><path class="cls-22" d="M424.29,392.86c-.61-12.21-8.26-21.78-17.09-21.38a11.09,11.09,0,0,0-7.49,3l0,37.35a13.29,13.29,0,0,0,9.65,3.83C418.22,415.28,424.89,405.06,424.29,392.86Z"/></g><g id="Burger"><path class="cls-16" d="M236.81,434.58c0-18.59,35-26.25,75.58-26.25s71.36,7.29,71.36,26.25c0,23.26-32.32,29.25-73.47,29.25C269.7,463.83,236.81,457.84,236.81,434.58Z"/><path class="cls-17" d="M362.85,442.44c7.15-2.65,13.67-9.65,15.95-16a13.6,13.6,0,0,0-7.64-17L243.62,420.91c-5.91,3.12-5.6,9.69-1,14.11s15.53,10.33,22.37,11.42c0,0,20.67,5.35,51.82,3.7C351.39,448.32,362.85,442.44,362.85,442.44Z"/><path class="cls-23" d="M362.85,433.3c7.15-2.66,13.67-9.66,15.95-16a13.6,13.6,0,0,0-7.64-17L243.62,411.77c-5.91,3.12-5.6,9.69-1,14.1S258.16,436.21,265,437.3c0,0,20.67,5.34,51.82,3.7C351.39,439.17,362.85,433.3,362.85,433.3Z"/><path class="cls-24" d="M272.3,423.62c1.47,2.73,5.08,3.36,8.2,3.6s6.7.61,8.48,3.16c1.11,1.6,1.2,3.68,1.13,5.62s-.23,4,.49,5.76,2.67,3.33,4.57,2.83,2.85-2.72,3-4.69-.1-4,.71-5.86,3.34-3.07,4.83-1.75.72,3.95,2,5.47,4.26.81,5.68-.82,2.1-3.8,3.53-5.43c2.34-2.68,6.21-3.36,9.75-3.87,2.8-.41,6.18-.61,7.92,1.6,1.25,1.59,1.11,3.8,1.26,5.81s1,4.36,3,4.82,3.92-1.45,4.46-3.44.23-4.1.52-6.14,1.55-4.24,3.61-4.5c4.45-.58,6.17,7.63,10.61,7,2.53-.35,3.55-3.34,4.16-5.79s8.51-13.46,11.06-13.35Z"/><path class="cls-8" d="M390.83,399.94c-2.64-6.32-12.08-8.75-18.09-13.13-5.06-3.69-11.57-7.37-18.17-6.42l-108,12.46c-5.27,2.41-10.78,5-13.88,9.34s-2.65,10.92,2.53,13.46c5,2.47,11.72.13,17.05,2.09,5.05,1.85,7.37,7,12.15,9.31,4.35,2.11,9.82,1.46,14.65.29s9.69-2.8,14.7-2.46c7.59.52,14.28,5.53,21.88,5,8.63-.56,15.27-8.07,23.91-7.81,3,.09,5.85,1.14,8.78,1.74s6.31.66,8.63-1c1.88-1.31,2.68-3.44,4.32-4.95,3.08-2.83,8.22-2.89,12.75-3.08s7.81-2.64,11.63-4.73C391,407.24,391.92,402.53,390.83,399.94Z"/><g class="cls-20"><path d="M390.83,399.94c-2.64-6.32-12.08-8.75-18.09-13.13-5.06-3.69-11.57-7.37-18.17-6.42l-108,12.46c-5.27,2.41-10.78,5-13.88,9.34s-2.65,10.92,2.53,13.46c5,2.47,11.72.13,17.05,2.09,5.05,1.85,7.37,7,12.15,9.31,4.35,2.11,9.82,1.46,14.65.29s9.69-2.8,14.7-2.46c7.59.52,14.28,5.53,21.88,5,8.63-.56,15.27-8.07,23.91-7.81,3,.09,5.85,1.14,8.78,1.74s6.31.66,8.63-1c1.88-1.31,2.68-3.44,4.32-4.95,3.08-2.83,8.22-2.89,12.75-3.08s7.81-2.64,11.63-4.73C391,407.24,391.92,402.53,390.83,399.94Z"/></g><path class="cls-16" d="M384,390.07c0,18.6-35,26.26-75.58,26.26S237,409,237,390.07c0-23.25,32.89-42.1,73.47-42.1S384,366.82,384,390.07Z"/><path class="cls-15" d="M278.55,366.16a2.69,2.69,0,0,1-4.24,2.29,2.69,2.69,0,0,1,4.24-2.29Z"/><path class="cls-15" d="M294.73,386a2.66,2.66,0,0,1,4,2.59,2.66,2.66,0,0,1-4-2.59Z"/><path class="cls-15" d="M305.38,370.58a2.64,2.64,0,0,1,4,2.58,2.64,2.64,0,0,1-4-2.58Z"/><path class="cls-15" d="M357.32,379.73a2.27,2.27,0,0,1-.61,4.22,2.27,2.27,0,0,1,.61-4.22Z"/><path class="cls-15" d="M258.34,383.27a2.28,2.28,0,0,1-.6,4.22,2.28,2.28,0,0,1,.6-4.22Z"/><path class="cls-15" d="M330.14,379.73a2.27,2.27,0,0,1-.61,4.22,2.27,2.27,0,0,1,.61-4.22Z"/><path class="cls-15" d="M327.54,364.44a2.76,2.76,0,0,1,4.59,1.72,2.76,2.76,0,0,1-4.59-1.72Z"/><path class="cls-13" d="M326.26,354c-.87,0,22.62,32.79,16.55,42.81S316,411.71,316,411.71s47.1-.46,59.92-13.52S359.13,354,326.26,354Z"/><path class="cls-6" d="M244.19,398.28s-8.28-11.29,4.43-25.12,50.59-21.05,63.42-20.81C312,352.35,252.82,371,244.19,398.28Z"/></g><g id="Hot_dog" data-name="Hot dog"><path class="cls-16" d="M37.36,368.47s-17.79-31.85,34.05-39.33c36.81-5.31,48-16.34,56.08-25.54a36.35,36.35,0,0,1,25.34-12.55c10.12-.54,20.06,3.26,15,22.58-7.16,27.4-34.26,46-54.08,52.77S51,382.58,37.36,368.47Z"/><path class="cls-5" d="M40.91,346.55s3.23-8.88,15.41-11.69,42.52-7.76,55.12-14.69,29-23,29-23-15.06,24-34.5,31.69-40.89,7.81-51,11S40.91,346.55,40.91,346.55Z"/><path class="cls-8" d="M41.63,354s1.29-9.73,8.22-12.13,10.23,1,12.71-.38,4.23-6.92,9.06-6.81,12.23,4.61,12.53,4,1-8.3,8.8-8.5c3.71-.1,7.5,6.56,8,5.23a76.71,76.71,0,0,1,5.18-10.71c2-3.5,9.88-1,12.93,1.12.94.66,2.52-10.26,7.75-13.18,3.49-1.95,7.83,1.5,7.83,1.5s-2.48-9.93,2.25-11.59c3.89-1.37,6.67,3.21,6.67,3.21s-2-7.79,3.16-7.94c2.87-.08,3.23,1.57,3.23,1.57l.81,8.45-57.46,38L44.8,361.13Z"/><path class="cls-25" d="M174.44,285.07c-10.23-2.18-17.71,6.37-24.18,13.62C130.73,320.6,104.93,338,75.93,342.58c-7.81,1.23-15.8,1.53-23.47,3.48S37.21,351.9,33,358.58c-.24.37-.46.75-.67,1.14-4.3,8-1.29,18.06,6.32,23l3.21,2.1a18.25,18.25,0,0,0,8.36,2.9c22.65,2.07,45.77-2.48,66.5-11.92,22.17-10.1,41.66-25.66,57.6-44.08,8.11-9.38,15.73-20.46,12.8-33.66A16.83,16.83,0,0,0,174.44,285.07Z"/><g class="cls-26"><path class="cls-25" d="M174.44,285.07c-10.23-2.18-17.71,6.37-24.18,13.62C130.73,320.6,104.93,338,75.93,342.58c-7.81,1.23-15.8,1.53-23.47,3.48S37.21,351.9,33,358.58c-.24.37-.46.75-.67,1.14-4.3,8-1.29,18.06,6.32,23l3.21,2.1a18.25,18.25,0,0,0,8.36,2.9c22.65,2.07,45.77-2.48,66.5-11.92,22.17-10.1,41.66-25.66,57.6-44.08,8.11-9.38,15.73-20.46,12.8-33.66A16.83,16.83,0,0,0,174.44,285.07Z"/></g><path class="cls-24" d="M65.64,353.44c-.1-.27-.15-.57-.25-.84-.22-.58,0,1,0,0a2.45,2.45,0,0,1,0-.71l-.08.5c0-.17.07-.34.11-.51a8.21,8.21,0,0,1,.27-.84c-.34.89-.11.32,0,.13.54-.94-.46.38,0-.08.2-.2,1.12-.87.29-.36.2-.13.44-.24.63-.37-.58.41-.39.11-.06,0,0,0,1.19-.32.48-.16s.44,0,.49,0c.77-.06.14,0-.1-.06.3.05.6.17.89.21.59.1-.79-.5.1.06l.85.55c-.91-.62.31.33.53.53L71,352.56a14.19,14.19,0,0,0,3.32,2.4,9.06,9.06,0,0,0,10-1.36,15.88,15.88,0,0,0,4.12-6,27.23,27.23,0,0,1,1.4-2.81c.18-.29.37-.57.57-.85-.11.15-.63.65-.07.14,0,0,.38-.45.46-.46-.49.36-.54.41-.13.13l.28-.16-.48.19a6.44,6.44,0,0,1,.72-.2c-.61.11-.2-.11,0,.08l-.39-.07.4.09c.09,0,1.33.52.5.13a10.72,10.72,0,0,1,1.47.84c.29.19.56.4.85.6s.22.17-.09-.06l.66.51c2.63,2.07,5.2,3.77,8.62,4.06a8.76,8.76,0,0,0,8.28-4.1c1.58-2.69,1.22-5.64.8-8.57a4.49,4.49,0,0,0-.1-.67c.33.87,0,.46,0,0s-.05-1,0-1.45c0-.92,0,.29,0,.27s.57-1.48,0-.07c.09-.2.5-.69-.14.14.49-.64-.63.27.1-.06-1,.44-.31.15,0,.05l.15,0c.5-.09.43-.09-.21,0a3,3,0,0,1,.67,0c.9,0-.13-.07-.19-.06.23-.05,1.73.52,1,.21a15.69,15.69,0,0,1,2.06,1.11c2.74,1.66,5.33,3.2,8.58,3.53a9.25,9.25,0,0,0,8.66-3.92c1.75-2.53,2-5.72,1.71-8.68-.06-.7-.14-1.4-.18-2.11a11.16,11.16,0,0,1,0-1.16c0-.25.14-1.24,0-.31,0-.22.09-.45.15-.67,0,0,.35-1.12.11-.43s.18-.34.22-.4c.16-.3.36-.58.55-.87-.1.15-.61.66-.05.11l.74-.72c.75-.74-.52.26,0,0,.35-.18.7-.41,1.05-.6-.14.08-.9.3-.13.06.34-.1.66-.19,1-.27,1-.23-.54-.1.17,0,.44.07.93,0,1.38,0l1.15.11c-1.17-.13,2.28.31,1.38.19.77.1,1.53.2,2.31.23a13,13,0,0,0,4.51-.62,9.23,9.23,0,0,0,6.47-8.88c0-1.41-.23-2.85-.31-4.26,0-.6-.18-.06-.07.21a3.71,3.71,0,0,1,.24-.94l-.2.5c.21-.33.21-.35,0,0a1.31,1.31,0,0,1-.63.53,3.15,3.15,0,0,1,.55-.28c2.16-1,2.83-4.27,1.61-6.15-1.44-2.24-3.85-2.64-6.15-1.62-3.05,1.36-4.37,5-4.35,8.12,0,1.29.19,2.65.32,3.93.06.58-.24.28,0,0l-.09.39c.19-.38.22-.44.08-.19-.38.55.77-.75,0,0l-.23.22c.49-.37.53-.42.12-.16-.61,0-.07.24.18,0-.15.17-.76.21-1,.27-.42.13-.37.3.19,0a2.36,2.36,0,0,1-.84,0,17.14,17.14,0,0,1-1.89-.13c-1.51-.15.86.13-.64-.08-.71-.09-1.41-.2-2.12-.27a13.3,13.3,0,0,0-8.84,2,14,14,0,0,0-5.46,7.14c-1,3.05-.26,6-.26,9.12,0,.37,0,.73,0,1.09,0-.2.22-.89,0-.12,0,0-.3,1.17-.09.49s-.22.35-.25.4c.33-.72.17-.34,0-.1l.36-.26c-.38.21-.41.25-.08.11.52-.35-.36.07-.46.11.56-.06.66-.07.32-.05h-.54c-1.09,0,.55.21-.08,0-.29-.09-.6-.14-.9-.23l-.69-.25c1.06.42-.21-.15-.36-.23-1.25-.68-2.41-1.51-3.66-2.2a13,13,0,0,0-9.34-1.64,8.54,8.54,0,0,0-6.4,6.57,12.83,12.83,0,0,0-.13,3.76c.09.85.22,1.69.35,2.53s0-.08,0-.2a5.43,5.43,0,0,1,.1,1.14c0,.26,0,.53,0,.79,0,.91,0-.3,0-.28s-.62,1.49,0,.05c-.1.22-.47.66.15-.13-.45.57,0,0,.17-.1-.82.62.87-.28-.11,0-.64.22.13.08.21,0a2.33,2.33,0,0,1-1,0l.52.06a4.77,4.77,0,0,1-.65-.17c-.26-.05-.61-.34.06.05-.6-.35-1.19-.66-1.77-1.06l-.67-.49c.64.47-.08-.08-.24-.2-.79-.62-1.58-1.26-2.4-1.84-2.82-2-6.62-3.16-10-2a11.88,11.88,0,0,0-6.52,6.06c-.47.93-.86,1.89-1.3,2.84-.25.52-.51,1-.81,1.55-.15.25-.33.48-.48.74s-.13.19.18-.21q-.21.26-.45.51l-.49.46c.91-.93,0,.15-.15,0,.13.07.88-.21,0-.06-.34.07-.21.06.4-.05-.52,0-.45,0,.21.08,0,0-.63-.2-.61-.17.58.26.65.27.21.05l-.28-.17c-.93-.47.65.63-.14-.09l-.76-.68c-2.61-2.42-5.12-4.39-8.78-4.71A11.18,11.18,0,0,0,57,355.84c.77,2.21,3.11,3.92,5.53,3.14,2.2-.71,4-3.16,3.15-5.54Z"/><path class="cls-16" d="M54.92,397a18.2,18.2,0,0,1-12.65-15.23c-1.17-10.43,3.36-26.31,38.86-31.86,54.61-8.54,56.63-26.59,67.92-36.13s41.06-7.94,33.51,21-35.82,47.3-56.73,54.48C108.46,395.2,74.26,403,54.92,397Z"/><path class="cls-13" d="M175.09,310.65s10.78,13.82-14.32,45.88-75.72,34.61-96,35.39S42.3,375.79,42.36,375.44a24.12,24.12,0,0,0-.09,6.16,18.21,18.21,0,0,0,12.65,15.23c19.34,6,53.54-1.81,70.91-7.77,20.91-7.18,49.17-25.56,56.73-54.48,3.13-12-.18-19.29-5.91-23l-1.56-.9Z"/><g class="cls-20"><path class="cls-15" d="M155.43,317.07s-11.33,17.85-27.07,24.71-59.73,9.6-73,23.08c-7.47,7.61-3.49,14.08-3.49,14.08,1.06-5.31,4.66-9.87,9.09-13s9.66-4.87,14.93-6.12c10.57-2.52,21.49-3.06,32.26-4.5s21.68-3.89,30.83-9.75,16.32-15.69,16.6-26.56"/></g></g><g id="Doughnut"><path class="cls-17" d="M219.77,425.22c0,14.17-5.3,28.26-17.83,37.14-11.21,8-28.74,11.47-45.18,11.47-17.39,0-36.07-4.49-47.48-13.29s-15.52-21.89-15.52-35.32c0-26.84,28.21-48.61,63-48.61S219.77,398.38,219.77,425.22Z"/><path class="cls-13" d="M94.14,420.32a37.12,37.12,0,0,0,0,13.78c.9,4.64,2.3,9.12,4,4.92s3.23-6.77,7.07-3,.88,16.1,10.33,13.31,9.16-15.07,14.77-10.94,10,10.94,16.24,7.23,8.86-11.05,14.18-7.23S164,462,174.58,460.74s3.84-23.53,11.52-22,8.86,11.45,15.06,9,5.61-14.87,8.57-15.8,2.06,9,7.08,6.82,10.93-60.69-49.32-62.24C115.92,375.2,100.06,388.59,94.14,420.32Z"/><path class="cls-8" d="M91.16,417.32a35.45,35.45,0,0,0,0,13.77c.93,4.64,2.4,9.13,4.18,4.93s3.38-6.77,7.41-3.06.93,16.1,10.83,13.32,9.6-15.08,15.48-10.95,10.53,10.95,17,7.23,9.29-11.05,14.86-7.23,3.41,23.64,14.56,22.4,4-23.53,12.07-22,9.29,11.46,15.79,9,5.88-14.86,9-15.79,2.17,9,7.43,6.81,11.46-60.68-51.71-62.23C114,372.19,97.38,385.58,91.16,417.32Z"/><ellipse class="cls-17" cx="157.93" cy="400.15" rx="19.73" ry="10.58"/><path class="cls-8" d="M140.59,405.21s1.78-4.65,4.61-5.06,1.41,7.24,6.5,6,4-8.48,7.08-8.48.56,5.23,6.22,6.36,3.82-4.42,7.07-3.84a5.68,5.68,0,0,1,4.16,4s10.19-13.62-17.11-15.47S136.45,402.77,140.59,405.21Z"/><path class="cls-22" d="M100.78,396.27s-5.93,22.06,38.37,28.92c0,0-27.85.5-36.89-11.87C95.22,403.68,100.78,396.27,100.78,396.27Z"/><g class="cls-14"><path class="cls-15" d="M176.42,383.38c-1.32,1.48-3.81.88-5.79.73a68.31,68.31,0,0,0-30.89,4.95,21.25,21.25,0,0,0-6.54,3.82,9.14,9.14,0,0,0-3.15,6.69c.11,3.89,3.43,7.58.45,11.39a7.53,7.53,0,0,1-2.91,2.16,15.24,15.24,0,0,1-18.76-22.38c3.33-5.06,9.3-7.67,15.08-9.5a105.45,105.45,0,0,1,33.56-4.9l11.42.55a11.11,11.11,0,0,1,1.9.25S180.85,378.38,176.42,383.38Z"/></g><path class="cls-13" d="M213.69,449.39c-11.75,13-31.57,20.87-55.93,20.71-28-.19-49.32-10.23-57.4-19.39a37.53,37.53,0,0,0,8.92,9.83c11.41,8.8,30.09,13.29,47.48,13.29,16.44,0,34-3.51,45.18-11.47A40.15,40.15,0,0,0,213.69,449.39Z"/><path class="cls-15" d="M181,408.45l8.26-3.8a1.35,1.35,0,0,0,.48-1.84,1.39,1.39,0,0,0-1.83-.48l-8.26,3.81a1.33,1.33,0,0,0-.48,1.83,1.37,1.37,0,0,0,1.83.48Z"/><path class="cls-15" d="M200.26,394.07l6.72,6.12a1.34,1.34,0,1,0,1.9-1.89l-6.72-6.12a1.34,1.34,0,1,0-1.9,1.89Z"/><path class="cls-15" d="M130.4,414.62l8.25-3.8a1.35,1.35,0,0,0,.48-1.84,1.38,1.38,0,0,0-1.83-.48L129,412.31a1.34,1.34,0,0,0-.48,1.83,1.39,1.39,0,0,0,1.84.48Z"/><path class="cls-15" d="M161.83,420.78l8.25-3.81a1.33,1.33,0,0,0,.48-1.83,1.37,1.37,0,0,0-1.83-.48l-8.26,3.8a1.36,1.36,0,0,0-.48,1.84,1.39,1.39,0,0,0,1.84.48Z"/><path class="cls-15" d="M135,383.59l8.19,3.94a1.34,1.34,0,1,0,1.36-2.32l-8.2-3.93a1.34,1.34,0,0,0-1.35,2.31Z"/><path class="cls-15" d="M194.32,393.69l-8.25-3.81a1.38,1.38,0,0,0-1.84.48,1.37,1.37,0,0,0,.48,1.84L193,396a1.37,1.37,0,0,0,1.83-.48,1.35,1.35,0,0,0-.48-1.83Z"/><path class="cls-15" d="M201.1,405.11c-2.19-.66-4.35-1.36-6.53-2a1.34,1.34,0,0,0-.72,2.58c2.19.66,4.35,1.37,6.53,2a1.34,1.34,0,0,0,.72-2.59Z"/><path class="cls-15" d="M154.34,380.19c-2.18-.65-4.34-1.36-6.53-2a1.36,1.36,0,0,0-1.65.94,1.38,1.38,0,0,0,.94,1.65c2.18.65,4.35,1.36,6.53,2a1.36,1.36,0,0,0,1.65-.94,1.38,1.38,0,0,0-.94-1.65Z"/><path class="cls-15" d="M182,379.88c-2.17.7-4.35,1.35-6.52,2.05a1.34,1.34,0,1,0,.71,2.58c2.17-.69,4.36-1.34,6.52-2a1.34,1.34,0,0,0-.71-2.59Z"/><path class="cls-15" d="M119.69,404c-2.18-.66-4.34-1.36-6.52-2a1.34,1.34,0,0,0-.72,2.58c2.18.66,4.35,1.37,6.53,2a1.34,1.34,0,0,0,.71-2.59Z"/><path class="cls-15" d="M169,383.94c-2.26.2-4.54.35-6.81.56a1.37,1.37,0,0,0-1.34,1.34,1.36,1.36,0,0,0,1.34,1.34c2.27-.21,4.55-.36,6.81-.56a1.38,1.38,0,0,0,1.35-1.34,1.36,1.36,0,0,0-1.35-1.34Z"/><path class="cls-15" d="M152.35,418.37c-2.18-.66-4.35-1.37-6.53-2a1.35,1.35,0,0,0-1.65.93,1.37,1.37,0,0,0,.94,1.65c2.18.66,4.34,1.37,6.53,2a1.33,1.33,0,0,0,1.64-.93,1.36,1.36,0,0,0-.93-1.65Z"/><path class="cls-15" d="M190,414.48c-2.18-.66-4.35-1.37-6.53-2a1.34,1.34,0,0,0-.71,2.59c2.18.66,4.35,1.36,6.53,2a1.34,1.34,0,1,0,.71-2.58Z"/><path class="cls-15" d="M197.54,385.46c-2.19-.66-4.35-1.37-6.53-2a1.35,1.35,0,0,0-1.65.93,1.37,1.37,0,0,0,.93,1.65c2.19.66,4.35,1.37,6.53,2a1.35,1.35,0,0,0,1.65-.93,1.37,1.37,0,0,0-.93-1.65Z"/><path class="cls-15" d="M121.81,388.42c-2.12.82-4.27,1.59-6.39,2.42a1.34,1.34,0,1,0,.71,2.58c2.12-.82,4.27-1.59,6.39-2.42a1.34,1.34,0,1,0-.71-2.58Z"/><path class="cls-15" d="M128.42,393.65c-.95,2.07-1.95,4.12-2.91,6.19a1.37,1.37,0,0,0,.48,1.83,1.36,1.36,0,0,0,1.84-.48c1-2.07,2-4.11,2.9-6.18a1.34,1.34,0,1,0-2.31-1.36Z"/><ellipse class="cls-13" cx="157.93" cy="400.15" rx="19.73" ry="10.58"/></g></svg>