<svg width="18" height="17" viewBox="0 0 18 17" fill="none" xmlns="http://www.w3.org/2000/svg">
<rect width="18" height="17" fill="#1E1E1E"/>
<g id="Home screen">
<g clip-path="url(#clip0_0_1)">
<rect x="-173" y="-610" width="430" height="932" rx="50" fill="#F0F4FC"/>
<g id="Rectangle 34" filter="url(#filter0_d_0_1)">
<path d="M-143 -58H29V7C29 18.0457 20.0457 27 9 27H-123C-134.046 27 -143 18.0457 -143 7V-58Z" fill="white"/>
</g>
<g id="Group 7">
<g id="Group 6">
<path id="Vector" d="M9.496 15.9242C9.224 16.0253 8.776 16.0253 8.504 15.9242C6.184 15.0899 1 11.6096 1 5.71067C1 3.10674 2.992 1 5.448 1C6.904 1 8.192 1.74157 9 2.88764C9.41102 2.3027 9.94638 1.8273 10.5632 1.4995C11.18 1.17171 11.8611 1.00064 12.552 1C15.008 1 17 3.10674 17 5.71067C17 11.6096 11.816 15.0899 9.496 15.9242Z" stroke="black" stroke-width="1.5" stroke-linecap="round" stroke-linejoin="round"/>
</g>
</g>
</g>
</g>
<defs>
<filter id="filter0_d_0_1" x="-163" y="-76" width="212" height="125" filterUnits="userSpaceOnUse" color-interpolation-filters="sRGB">
<feFlood flood-opacity="0" result="BackgroundImageFix"/>
<feColorMatrix in="SourceAlpha" type="matrix" values="0 0 0 0 0 0 0 0 0 0 0 0 0 0 0 0 0 0 127 0" result="hardAlpha"/>
<feOffset dy="2"/>
<feGaussianBlur stdDeviation="10"/>
<feComposite in2="hardAlpha" operator="out"/>
<feColorMatrix type="matrix" values="0 0 0 0 0 0 0 0 0 0 0 0 0 0 0 0 0 0 0.05 0"/>
<feBlend mode="normal" in2="BackgroundImageFix" result="effect1_dropShadow_0_1"/>
<feBlend mode="normal" in="SourceGraphic" in2="effect1_dropShadow_0_1" result="shape"/>
</filter>
<clipPath id="clip0_0_1">
<rect x="-173" y="-610" width="430" height="932" rx="50" fill="white"/>
</clipPath>
</defs>
</svg>
