<svg width="35" height="33" viewBox="0 0 35 33" fill="none" xmlns="http://www.w3.org/2000/svg">
<rect width="35" height="33" fill="#1E1E1E"/>
<g id="Home screen">
<g clip-path="url(#clip0_0_1)">
<rect x="-366" y="-850" width="430" height="932" rx="50" fill="#F0F4FC"/>
<g id="Rectangle 39" filter="url(#filter0_d_0_1)">
<path d="M-126 -10H46V54C46 65.0457 37.0457 74 26 74H-40H-106C-117.046 74 -126 65.0457 -126 54V-10Z" fill="white"/>
</g>
<g id="Group 10">
<path id="Green salad with mashed potatots" d="M-105.908 5.07C-106.16 4.58467 -106.51 4.22067 -106.958 3.978C-107.406 3.726 -107.924 3.6 -108.512 3.6C-109.156 3.6 -109.73 3.74467 -110.234 4.034C-110.738 4.32333 -111.135 4.734 -111.424 5.266C-111.704 5.798 -111.844 6.414 -111.844 7.114C-111.844 7.814 -111.704 8.43467 -111.424 8.976C-111.135 9.508 -110.738 9.91867 -110.234 10.208C-109.73 10.4973 -109.156 10.642 -108.512 10.642C-107.644 10.642 -106.939 10.3993 -106.398 9.914C-105.857 9.42867 -105.525 8.77067 -105.404 7.94H-109.058V6.666H-103.696V7.912C-103.799 8.668 -104.069 9.36333 -104.508 9.998C-104.937 10.6327 -105.502 11.1413 -106.202 11.524C-106.893 11.8973 -107.663 12.084 -108.512 12.084C-109.427 12.084 -110.262 11.874 -111.018 11.454C-111.774 11.0247 -112.376 10.432 -112.824 9.676C-113.263 8.92 -113.482 8.066 -113.482 7.114C-113.482 6.162 -113.263 5.308 -112.824 4.552C-112.376 3.796 -111.774 3.208 -111.018 2.788C-110.253 2.35867 -109.417 2.144 -108.512 2.144C-107.476 2.144 -106.557 2.40067 -105.754 2.914C-104.942 3.418 -104.354 4.13667 -103.99 5.07H-105.908ZM-100.526 5.406C-100.293 5.014 -99.9845 4.71067 -99.6019 4.496C-99.2099 4.272 -98.7479 4.16 -98.2159 4.16V5.812H-98.6219C-99.2472 5.812 -99.7232 5.97067 -100.05 6.288C-100.367 6.60533 -100.526 7.156 -100.526 7.94V12H-102.122V4.286H-100.526V5.406ZM-89.6788 7.954C-89.6788 8.24333 -89.6975 8.50467 -89.7348 8.738H-95.6288C-95.5822 9.354 -95.3535 9.84867 -94.9428 10.222C-94.5322 10.5953 -94.0282 10.782 -93.4308 10.782C-92.5722 10.782 -91.9655 10.4227 -91.6108 9.704H-89.8888C-90.1222 10.4133 -90.5468 10.9967 -91.1628 11.454C-91.7695 11.902 -92.5255 12.126 -93.4308 12.126C-94.1682 12.126 -94.8308 11.9627 -95.4188 11.636C-95.9975 11.3 -96.4548 10.8333 -96.7908 10.236C-97.1175 9.62933 -97.2808 8.92933 -97.2808 8.136C-97.2808 7.34267 -97.1222 6.64733 -96.8048 6.05C-96.4782 5.44333 -96.0255 4.97667 -95.4468 4.65C-94.8588 4.32333 -94.1868 4.16 -93.4308 4.16C-92.7028 4.16 -92.0542 4.31867 -91.4848 4.636C-90.9155 4.95333 -90.4722 5.40133 -90.1548 5.98C-89.8375 6.54933 -89.6788 7.20733 -89.6788 7.954ZM-91.3448 7.45C-91.3542 6.862 -91.5642 6.39067 -91.9748 6.036C-92.3855 5.68133 -92.8942 5.504 -93.5008 5.504C-94.0515 5.504 -94.5228 5.68133 -94.9148 6.036C-95.3068 6.38133 -95.5402 6.85267 -95.6148 7.45H-91.3448ZM-81.0382 7.954C-81.0382 8.24333 -81.0569 8.50467 -81.0942 8.738H-86.9882C-86.9415 9.354 -86.7129 9.84867 -86.3022 10.222C-85.8915 10.5953 -85.3875 10.782 -84.7902 10.782C-83.9315 10.782 -83.3249 10.4227 -82.9702 9.704H-81.2482C-81.4815 10.4133 -81.9062 10.9967 -82.5222 11.454C-83.1289 11.902 -83.8849 12.126 -84.7902 12.126C-85.5275 12.126 -86.1902 11.9627 -86.7782 11.636C-87.3569 11.3 -87.8142 10.8333 -88.1502 10.236C-88.4769 9.62933 -88.6402 8.92933 -88.6402 8.136C-88.6402 7.34267 -88.4815 6.64733 -88.1642 6.05C-87.8375 5.44333 -87.3849 4.97667 -86.8062 4.65C-86.2182 4.32333 -85.5462 4.16 -84.7902 4.16C-84.0622 4.16 -83.4135 4.31867 -82.8442 4.636C-82.2749 4.95333 -81.8315 5.40133 -81.5142 5.98C-81.1969 6.54933 -81.0382 7.20733 -81.0382 7.954ZM-82.7042 7.45C-82.7135 6.862 -82.9235 6.39067 -83.3342 6.036C-83.7449 5.68133 -84.2535 5.504 -84.8602 5.504C-85.4109 5.504 -85.8822 5.68133 -86.2742 6.036C-86.6662 6.38133 -86.8995 6.85267 -86.9742 7.45H-82.7042ZM-75.5756 4.16C-74.9689 4.16 -74.4276 4.286 -73.9516 4.538C-73.4662 4.79 -73.0882 5.16333 -72.8176 5.658C-72.5469 6.15267 -72.4116 6.75 -72.4116 7.45V12H-73.9936V7.688C-73.9936 6.99733 -74.1662 6.47 -74.5116 6.106C-74.8569 5.73267 -75.3282 5.546 -75.9256 5.546C-76.5229 5.546 -76.9989 5.73267 -77.3536 6.106C-77.6989 6.47 -77.8716 6.99733 -77.8716 7.688V12H-79.4676V4.286H-77.8716V5.168C-77.6102 4.85067 -77.2789 4.60333 -76.8776 4.426C-76.4669 4.24867 -76.0329 4.16 -75.5756 4.16ZM-63.9391 12.126C-64.5457 12.126 -65.0917 12.0187 -65.5771 11.804C-66.0531 11.58 -66.4311 11.2813 -66.7111 10.908C-66.9911 10.5253 -67.1404 10.1007 -67.1591 9.634H-65.5071C-65.4791 9.96067 -65.3251 10.236 -65.0451 10.46C-64.7557 10.6747 -64.3964 10.782 -63.9671 10.782C-63.5191 10.782 -63.1737 10.698 -62.9311 10.53C-62.6791 10.3527 -62.5531 10.1287 -62.5531 9.858C-62.5531 9.56867 -62.6931 9.354 -62.9731 9.214C-63.2437 9.074 -63.6777 8.92 -64.2751 8.752C-64.8537 8.59333 -65.3251 8.43933 -65.6891 8.29C-66.0531 8.14067 -66.3704 7.912 -66.6411 7.604C-66.9024 7.296 -67.0331 6.89 -67.0331 6.386C-67.0331 5.97533 -66.9117 5.602 -66.6691 5.266C-66.4264 4.92067 -66.0811 4.65 -65.6331 4.454C-65.1757 4.258 -64.6531 4.16 -64.0651 4.16C-63.1877 4.16 -62.4831 4.384 -61.9511 4.832C-61.4097 5.27067 -61.1204 5.87267 -61.0831 6.638H-62.6791C-62.7071 6.29267 -62.8471 6.01733 -63.0991 5.812C-63.3511 5.60667 -63.6917 5.504 -64.1211 5.504C-64.5411 5.504 -64.8631 5.58333 -65.0871 5.742C-65.3111 5.90067 -65.4231 6.11067 -65.4231 6.372C-65.4231 6.57733 -65.3484 6.75 -65.1991 6.89C-65.0497 7.03 -64.8677 7.142 -64.6531 7.226C-64.4384 7.30067 -64.1211 7.39867 -63.7011 7.52C-63.1411 7.66933 -62.6837 7.82333 -62.3291 7.982C-61.9651 8.13133 -61.6524 8.35533 -61.3911 8.654C-61.1297 8.95267 -60.9944 9.34933 -60.9851 9.844C-60.9851 10.2827 -61.1064 10.6747 -61.3491 11.02C-61.5917 11.3653 -61.9371 11.636 -62.3851 11.832C-62.8237 12.028 -63.3417 12.126 -63.9391 12.126ZM-59.7925 8.108C-59.7925 7.33333 -59.6339 6.64733 -59.3165 6.05C-58.9899 5.45267 -58.5512 4.99067 -58.0005 4.664C-57.4405 4.328 -56.8245 4.16 -56.1525 4.16C-55.5459 4.16 -55.0185 4.28133 -54.5705 4.524C-54.1132 4.75733 -53.7492 5.05133 -53.4785 5.406V4.286H-51.8685V12H-53.4785V10.852C-53.7492 11.216 -54.1179 11.5193 -54.5845 11.762C-55.0512 12.0047 -55.5832 12.126 -56.1805 12.126C-56.8432 12.126 -57.4499 11.958 -58.0005 11.622C-58.5512 11.2767 -58.9899 10.8007 -59.3165 10.194C-59.6339 9.578 -59.7925 8.88267 -59.7925 8.108ZM-53.4785 8.136C-53.4785 7.604 -53.5905 7.142 -53.8145 6.75C-54.0292 6.358 -54.3139 6.05933 -54.6685 5.854C-55.0232 5.64867 -55.4059 5.546 -55.8165 5.546C-56.2272 5.546 -56.6099 5.64867 -56.9645 5.854C-57.3192 6.05 -57.6085 6.344 -57.8325 6.736C-58.0472 7.11867 -58.1545 7.576 -58.1545 8.108C-58.1545 8.64 -58.0472 9.10667 -57.8325 9.508C-57.6085 9.90933 -57.3192 10.2173 -56.9645 10.432C-56.6005 10.6373 -56.2179 10.74 -55.8165 10.74C-55.4059 10.74 -55.0232 10.6373 -54.6685 10.432C-54.3139 10.2267 -54.0292 9.928 -53.8145 9.536C-53.5905 9.13467 -53.4785 8.668 -53.4785 8.136ZM-48.1763 1.64V12H-49.7723V1.64H-48.1763ZM-46.6129 8.108C-46.6129 7.33333 -46.4542 6.64733 -46.1369 6.05C-45.8102 5.45267 -45.3715 4.99067 -44.8209 4.664C-44.2609 4.328 -43.6449 4.16 -42.9729 4.16C-42.3662 4.16 -41.8389 4.28133 -41.3909 4.524C-40.9335 4.75733 -40.5695 5.05133 -40.2989 5.406V4.286H-38.6889V12H-40.2989V10.852C-40.5695 11.216 -40.9382 11.5193 -41.4049 11.762C-41.8715 12.0047 -42.4035 12.126 -43.0009 12.126C-43.6635 12.126 -44.2702 11.958 -44.8209 11.622C-45.3715 11.2767 -45.8102 10.8007 -46.1369 10.194C-46.4542 9.578 -46.6129 8.88267 -46.6129 8.108ZM-40.2989 8.136C-40.2989 7.604 -40.4109 7.142 -40.6349 6.75C-40.8495 6.358 -41.1342 6.05933 -41.4889 5.854C-41.8435 5.64867 -42.2262 5.546 -42.6369 5.546C-43.0475 5.546 -43.4302 5.64867 -43.7849 5.854C-44.1395 6.05 -44.4289 6.344 -44.6529 6.736C-44.8675 7.11867 -44.9749 7.576 -44.9749 8.108C-44.9749 8.64 -44.8675 9.10667 -44.6529 9.508C-44.4289 9.90933 -44.1395 10.2173 -43.7849 10.432C-43.4209 10.6373 -43.0382 10.74 -42.6369 10.74C-42.2262 10.74 -41.8435 10.6373 -41.4889 10.432C-41.1342 10.2267 -40.8495 9.928 -40.6349 9.536C-40.4109 9.13467 -40.2989 8.668 -40.2989 8.136ZM-37.1246 8.108C-37.1246 7.33333 -36.9659 6.64733 -36.6486 6.05C-36.3219 5.45267 -35.8832 4.99067 -35.3326 4.664C-34.7726 4.328 -34.1519 4.16 -33.4706 4.16C-32.9666 4.16 -32.4719 4.272 -31.9866 4.496C-31.4919 4.71067 -31.0999 5 -30.8106 5.364V1.64H-29.2006V12H-30.8106V10.838C-31.0719 11.2113 -31.4359 11.5193 -31.9026 11.762C-32.3599 12.0047 -32.8872 12.126 -33.4846 12.126C-34.1566 12.126 -34.7726 11.958 -35.3326 11.622C-35.8832 11.2767 -36.3219 10.8007 -36.6486 10.194C-36.9659 9.578 -37.1246 8.88267 -37.1246 8.108ZM-30.8106 8.136C-30.8106 7.604 -30.9226 7.142 -31.1466 6.75C-31.3612 6.358 -31.6459 6.05933 -32.0006 5.854C-32.3552 5.64867 -32.7379 5.546 -33.1486 5.546C-33.5592 5.546 -33.9419 5.64867 -34.2966 5.854C-34.6512 6.05 -34.9406 6.344 -35.1646 6.736C-35.3792 7.11867 -35.4866 7.576 -35.4866 8.108C-35.4866 8.64 -35.3792 9.10667 -35.1646 9.508C-34.9406 9.90933 -34.6512 10.2173 -34.2966 10.432C-33.9326 10.6373 -33.5499 10.74 -33.1486 10.74C-32.7379 10.74 -32.3552 10.6373 -32.0006 10.432C-31.6459 10.2267 -31.3612 9.928 -31.1466 9.536C-30.9226 9.13467 -30.8106 8.668 -30.8106 8.136ZM-13.1076 4.286L-15.5016 12H-17.1816L-18.7356 6.302L-20.2896 12H-21.9696L-24.3776 4.286H-22.7536L-21.1436 10.488L-19.5056 4.286H-17.8396L-16.2716 10.46L-14.6756 4.286H-13.1076ZM-11.1028 3.264C-11.3922 3.264 -11.6348 3.166 -11.8308 2.97C-12.0268 2.774 -12.1248 2.53133 -12.1248 2.242C-12.1248 1.95267 -12.0268 1.71 -11.8308 1.514C-11.6348 1.318 -11.3922 1.22 -11.1028 1.22C-10.8228 1.22 -10.5848 1.318 -10.3888 1.514C-10.1928 1.71 -10.0948 1.95267 -10.0948 2.242C-10.0948 2.53133 -10.1928 2.774 -10.3888 2.97C-10.5848 3.166 -10.8228 3.264 -11.1028 3.264ZM-10.3188 4.286V12H-11.9148V4.286H-10.3188ZM-6.36144 5.588V9.858C-6.36144 10.1473 -6.2961 10.3573 -6.16544 10.488C-6.02544 10.6093 -5.7921 10.67 -5.46544 10.67H-4.48544V12H-5.74544C-6.4641 12 -7.01477 11.832 -7.39744 11.496C-7.7801 11.16 -7.97144 10.614 -7.97144 9.858V5.588H-8.88144V4.286H-7.97144V2.368H-6.36144V4.286H-4.48544V5.588H-6.36144ZM0.975547 4.16C1.56355 4.16 2.08621 4.286 2.54355 4.538C3.01021 4.79 3.37421 5.16333 3.63555 5.658C3.90621 6.15267 4.04155 6.75 4.04155 7.45V12H2.45955V7.688C2.45955 6.99733 2.28688 6.47 1.94155 6.106C1.59621 5.73267 1.12488 5.546 0.527547 5.546C-0.0697864 5.546 -0.545786 5.73267 -0.900453 6.106C-1.24579 6.47 -1.41845 6.99733 -1.41845 7.688V12H-3.01445V1.64H-1.41845V5.182C-1.14779 4.85533 -0.80712 4.60333 -0.396453 4.426C0.0235471 4.24867 0.48088 4.16 0.975547 4.16ZM-103.612 25.16C-103.005 25.16 -102.464 25.286 -101.988 25.538C-101.503 25.79 -101.125 26.1633 -100.854 26.658C-100.574 27.1527 -100.434 27.75 -100.434 28.45V33H-102.016V28.688C-102.016 27.9973 -102.189 27.47 -102.534 27.106C-102.879 26.7327 -103.351 26.546 -103.948 26.546C-104.545 26.546 -105.021 26.7327 -105.376 27.106C-105.721 27.47 -105.894 27.9973 -105.894 28.688V33H-107.476V28.688C-107.476 27.9973 -107.649 27.47 -107.994 27.106C-108.339 26.7327 -108.811 26.546 -109.408 26.546C-110.005 26.546 -110.481 26.7327 -110.836 27.106C-111.181 27.47 -111.354 27.9973 -111.354 28.688V33H-112.95V25.286H-111.354V26.168C-111.093 25.8507 -110.761 25.6033 -110.36 25.426C-109.959 25.2487 -109.529 25.16 -109.072 25.16C-108.456 25.16 -107.905 25.2907 -107.42 25.552C-106.935 25.8133 -106.561 26.1913 -106.3 26.686C-106.067 26.2193 -105.703 25.8507 -105.208 25.58C-104.713 25.3 -104.181 25.16 -103.612 25.16ZM-98.9351 29.108C-98.9351 28.3333 -98.7765 27.6473 -98.4591 27.05C-98.1325 26.4527 -97.6938 25.9907 -97.1431 25.664C-96.5831 25.328 -95.9671 25.16 -95.2951 25.16C-94.6885 25.16 -94.1611 25.2813 -93.7131 25.524C-93.2558 25.7573 -92.8918 26.0513 -92.6211 26.406V25.286H-91.0111V33H-92.6211V31.852C-92.8918 32.216 -93.2605 32.5193 -93.7271 32.762C-94.1938 33.0047 -94.7258 33.126 -95.3231 33.126C-95.9858 33.126 -96.5925 32.958 -97.1431 32.622C-97.6938 32.2767 -98.1325 31.8007 -98.4591 31.194C-98.7765 30.578 -98.9351 29.8827 -98.9351 29.108ZM-92.6211 29.136C-92.6211 28.604 -92.7331 28.142 -92.9571 27.75C-93.1718 27.358 -93.4565 27.0593 -93.8111 26.854C-94.1658 26.6487 -94.5485 26.546 -94.9591 26.546C-95.3698 26.546 -95.7525 26.6487 -96.1071 26.854C-96.4618 27.05 -96.7511 27.344 -96.9751 27.736C-97.1898 28.1187 -97.2971 28.576 -97.2971 29.108C-97.2971 29.64 -97.1898 30.1067 -96.9751 30.508C-96.7511 30.9093 -96.4618 31.2173 -96.1071 31.432C-95.7431 31.6373 -95.3605 31.74 -94.9591 31.74C-94.5485 31.74 -94.1658 31.6373 -93.8111 31.432C-93.4565 31.2267 -93.1718 30.928 -92.9571 30.536C-92.7331 30.1347 -92.6211 29.668 -92.6211 29.136ZM-86.1148 33.126C-86.7215 33.126 -87.2675 33.0187 -87.7528 32.804C-88.2288 32.58 -88.6068 32.2813 -88.8868 31.908C-89.1668 31.5253 -89.3162 31.1007 -89.3348 30.634H-87.6828C-87.6548 30.9607 -87.5008 31.236 -87.2208 31.46C-86.9315 31.6747 -86.5722 31.782 -86.1428 31.782C-85.6948 31.782 -85.3495 31.698 -85.1068 31.53C-84.8548 31.3527 -84.7288 31.1287 -84.7288 30.858C-84.7288 30.5687 -84.8688 30.354 -85.1488 30.214C-85.4195 30.074 -85.8535 29.92 -86.4508 29.752C-87.0295 29.5933 -87.5008 29.4393 -87.8648 29.29C-88.2288 29.1407 -88.5462 28.912 -88.8168 28.604C-89.0782 28.296 -89.2088 27.89 -89.2088 27.386C-89.2088 26.9753 -89.0875 26.602 -88.8448 26.266C-88.6022 25.9207 -88.2568 25.65 -87.8088 25.454C-87.3515 25.258 -86.8288 25.16 -86.2408 25.16C-85.3635 25.16 -84.6588 25.384 -84.1268 25.832C-83.5855 26.2707 -83.2962 26.8727 -83.2588 27.638H-84.8548C-84.8828 27.2927 -85.0228 27.0173 -85.2748 26.812C-85.5268 26.6067 -85.8675 26.504 -86.2968 26.504C-86.7168 26.504 -87.0388 26.5833 -87.2628 26.742C-87.4868 26.9007 -87.5988 27.1107 -87.5988 27.372C-87.5988 27.5773 -87.5242 27.75 -87.3748 27.89C-87.2255 28.03 -87.0435 28.142 -86.8288 28.226C-86.6142 28.3007 -86.2968 28.3987 -85.8768 28.52C-85.3168 28.6693 -84.8595 28.8233 -84.5048 28.982C-84.1408 29.1313 -83.8282 29.3553 -83.5668 29.654C-83.3055 29.9527 -83.1702 30.3493 -83.1608 30.844C-83.1608 31.2827 -83.2822 31.6747 -83.5248 32.02C-83.7675 32.3653 -84.1128 32.636 -84.5608 32.832C-84.9995 33.028 -85.5175 33.126 -86.1148 33.126ZM-77.4463 25.16C-76.8583 25.16 -76.3357 25.286 -75.8783 25.538C-75.4117 25.79 -75.0477 26.1633 -74.7863 26.658C-74.5157 27.1527 -74.3803 27.75 -74.3803 28.45V33H-75.9623V28.688C-75.9623 27.9973 -76.135 27.47 -76.4803 27.106C-76.8257 26.7327 -77.297 26.546 -77.8943 26.546C-78.4917 26.546 -78.9677 26.7327 -79.3223 27.106C-79.6677 27.47 -79.8403 27.9973 -79.8403 28.688V33H-81.4363V22.64H-79.8403V26.182C-79.5697 25.8553 -79.229 25.6033 -78.8183 25.426C-78.3983 25.2487 -77.941 25.16 -77.4463 25.16ZM-65.2745 28.954C-65.2745 29.2433 -65.2932 29.5047 -65.3305 29.738H-71.2245C-71.1779 30.354 -70.9492 30.8487 -70.5385 31.222C-70.1279 31.5953 -69.6239 31.782 -69.0265 31.782C-68.1679 31.782 -67.5612 31.4227 -67.2065 30.704H-65.4845C-65.7179 31.4133 -66.1425 31.9967 -66.7585 32.454C-67.3652 32.902 -68.1212 33.126 -69.0265 33.126C-69.7639 33.126 -70.4265 32.9627 -71.0145 32.636C-71.5932 32.3 -72.0505 31.8333 -72.3865 31.236C-72.7132 30.6293 -72.8765 29.9293 -72.8765 29.136C-72.8765 28.3427 -72.7179 27.6473 -72.4005 27.05C-72.0739 26.4433 -71.6212 25.9767 -71.0425 25.65C-70.4545 25.3233 -69.7825 25.16 -69.0265 25.16C-68.2985 25.16 -67.6499 25.3187 -67.0805 25.636C-66.5112 25.9533 -66.0679 26.4013 -65.7505 26.98C-65.4332 27.5493 -65.2745 28.2073 -65.2745 28.954ZM-66.9405 28.45C-66.9499 27.862 -67.1599 27.3907 -67.5705 27.036C-67.9812 26.6813 -68.4899 26.504 -69.0965 26.504C-69.6472 26.504 -70.1185 26.6813 -70.5105 27.036C-70.9025 27.3813 -71.1359 27.8527 -71.2105 28.45H-66.9405ZM-64.2359 29.108C-64.2359 28.3333 -64.0772 27.6473 -63.7599 27.05C-63.4332 26.4527 -62.9946 25.9907 -62.4439 25.664C-61.8839 25.328 -61.2632 25.16 -60.5819 25.16C-60.0779 25.16 -59.5832 25.272 -59.0979 25.496C-58.6032 25.7107 -58.2112 26 -57.9219 26.364V22.64H-56.3119V33H-57.9219V31.838C-58.1832 32.2113 -58.5472 32.5193 -59.0139 32.762C-59.4712 33.0047 -59.9986 33.126 -60.5959 33.126C-61.2679 33.126 -61.8839 32.958 -62.4439 32.622C-62.9946 32.2767 -63.4332 31.8007 -63.7599 31.194C-64.0772 30.578 -64.2359 29.8827 -64.2359 29.108ZM-57.9219 29.136C-57.9219 28.604 -58.0339 28.142 -58.2579 27.75C-58.4726 27.358 -58.7572 27.0593 -59.1119 26.854C-59.4666 26.6487 -59.8492 26.546 -60.2599 26.546C-60.6706 26.546 -61.0532 26.6487 -61.4079 26.854C-61.7626 27.05 -62.0519 27.344 -62.2759 27.736C-62.4906 28.1187 -62.5979 28.576 -62.5979 29.108C-62.5979 29.64 -62.4906 30.1067 -62.2759 30.508C-62.0519 30.9093 -61.7626 31.2173 -61.4079 31.432C-61.0439 31.6373 -60.6612 31.74 -60.2599 31.74C-59.8492 31.74 -59.4666 31.6373 -59.1119 31.432C-58.7572 31.2267 -58.4726 30.928 -58.2579 30.536C-58.0339 30.1347 -57.9219 29.668 -57.9219 29.136ZM-48.9829 26.42C-48.7122 26.0653 -48.3436 25.7667 -47.8769 25.524C-47.4102 25.2813 -46.8829 25.16 -46.2949 25.16C-45.6229 25.16 -45.0116 25.328 -44.4609 25.664C-43.9009 25.9907 -43.4622 26.4527 -43.1449 27.05C-42.8276 27.6473 -42.6689 28.3333 -42.6689 29.108C-42.6689 29.8827 -42.8276 30.578 -43.1449 31.194C-43.4622 31.8007 -43.9009 32.2767 -44.4609 32.622C-45.0116 32.958 -45.6229 33.126 -46.2949 33.126C-46.8829 33.126 -47.4056 33.0093 -47.8629 32.776C-48.3202 32.5333 -48.6936 32.2347 -48.9829 31.88V36.668H-50.5789V25.286H-48.9829V26.42ZM-44.2929 29.108C-44.2929 28.576 -44.4049 28.1187 -44.6289 27.736C-44.8436 27.344 -45.1329 27.05 -45.4969 26.854C-45.8516 26.6487 -46.2342 26.546 -46.6449 26.546C-47.0462 26.546 -47.4289 26.6487 -47.7929 26.854C-48.1476 27.0593 -48.4369 27.358 -48.6609 27.75C-48.8756 28.142 -48.9829 28.604 -48.9829 29.136C-48.9829 29.668 -48.8756 30.1347 -48.6609 30.536C-48.4369 30.928 -48.1476 31.2267 -47.7929 31.432C-47.4289 31.6373 -47.0462 31.74 -46.6449 31.74C-46.2342 31.74 -45.8516 31.6373 -45.4969 31.432C-45.1329 31.2173 -44.8436 30.9093 -44.6289 30.508C-44.4049 30.1067 -44.2929 29.64 -44.2929 29.108ZM-37.7446 33.126C-38.4726 33.126 -39.1306 32.9627 -39.7186 32.636C-40.3066 32.3 -40.7686 31.8333 -41.1046 31.236C-41.4406 30.6293 -41.6086 29.9293 -41.6086 29.136C-41.6086 28.352 -41.436 27.6567 -41.0906 27.05C-40.7453 26.4433 -40.274 25.9767 -39.6766 25.65C-39.0793 25.3233 -38.412 25.16 -37.6746 25.16C-36.9373 25.16 -36.27 25.3233 -35.6726 25.65C-35.0753 25.9767 -34.604 26.4433 -34.2586 27.05C-33.9133 27.6567 -33.7406 28.352 -33.7406 29.136C-33.7406 29.92 -33.918 30.6153 -34.2726 31.222C-34.6273 31.8287 -35.1126 32.3 -35.7286 32.636C-36.3353 32.9627 -37.0073 33.126 -37.7446 33.126ZM-37.7446 31.74C-37.334 31.74 -36.9513 31.642 -36.5966 31.446C-36.2326 31.25 -35.9386 30.956 -35.7146 30.564C-35.4906 30.172 -35.3786 29.696 -35.3786 29.136C-35.3786 28.576 -35.486 28.1047 -35.7006 27.722C-35.9153 27.33 -36.2 27.036 -36.5546 26.84C-36.9093 26.644 -37.292 26.546 -37.7026 26.546C-38.1133 26.546 -38.496 26.644 -38.8506 26.84C-39.196 27.036 -39.4713 27.33 -39.6766 27.722C-39.882 28.1047 -39.9846 28.576 -39.9846 29.136C-39.9846 29.9667 -39.7746 30.6107 -39.3546 31.068C-38.9253 31.516 -38.3886 31.74 -37.7446 31.74ZM-30.3009 26.588V30.858C-30.3009 31.1473 -30.2356 31.3573 -30.1049 31.488C-29.9649 31.6093 -29.7316 31.67 -29.4049 31.67H-28.4249V33H-29.6849C-30.4036 33 -30.9542 32.832 -31.3369 32.496C-31.7196 32.16 -31.9109 31.614 -31.9109 30.858V26.588H-32.8209V25.286H-31.9109V23.368H-30.3009V25.286H-28.4249V26.588H-30.3009ZM-27.4859 29.108C-27.4859 28.3333 -27.3272 27.6473 -27.0099 27.05C-26.6832 26.4527 -26.2446 25.9907 -25.6939 25.664C-25.1339 25.328 -24.5179 25.16 -23.8459 25.16C-23.2392 25.16 -22.7119 25.2813 -22.2639 25.524C-21.8066 25.7573 -21.4426 26.0513 -21.1719 26.406V25.286H-19.5619V33H-21.1719V31.852C-21.4426 32.216 -21.8112 32.5193 -22.2779 32.762C-22.7446 33.0047 -23.2766 33.126 -23.8739 33.126C-24.5366 33.126 -25.1432 32.958 -25.6939 32.622C-26.2446 32.2767 -26.6832 31.8007 -27.0099 31.194C-27.3272 30.578 -27.4859 29.8827 -27.4859 29.108ZM-21.1719 29.136C-21.1719 28.604 -21.2839 28.142 -21.5079 27.75C-21.7226 27.358 -22.0072 27.0593 -22.3619 26.854C-22.7166 26.6487 -23.0992 26.546 -23.5099 26.546C-23.9206 26.546 -24.3032 26.6487 -24.6579 26.854C-25.0126 27.05 -25.3019 27.344 -25.5259 27.736C-25.7406 28.1187 -25.8479 28.576 -25.8479 29.108C-25.8479 29.64 -25.7406 30.1067 -25.5259 30.508C-25.3019 30.9093 -25.0126 31.2173 -24.6579 31.432C-24.2939 31.6373 -23.9112 31.74 -23.5099 31.74C-23.0992 31.74 -22.7166 31.6373 -22.3619 31.432C-22.0072 31.2267 -21.7226 30.928 -21.5079 30.536C-21.2839 30.1347 -21.1719 29.668 -21.1719 29.136ZM-15.6036 26.588V30.858C-15.6036 31.1473 -15.5383 31.3573 -15.4076 31.488C-15.2676 31.6093 -15.0343 31.67 -14.7076 31.67H-13.7276V33H-14.9876C-15.7063 33 -16.257 32.832 -16.6396 32.496C-17.0223 32.16 -17.2136 31.614 -17.2136 30.858V26.588H-18.1236V25.286H-17.2136V23.368H-15.6036V25.286H-13.7276V26.588H-15.6036ZM-8.91064 33.126C-9.63864 33.126 -10.2966 32.9627 -10.8846 32.636C-11.4726 32.3 -11.9346 31.8333 -12.2706 31.236C-12.6066 30.6293 -12.7746 29.9293 -12.7746 29.136C-12.7746 28.352 -12.602 27.6567 -12.2566 27.05C-11.9113 26.4433 -11.44 25.9767 -10.8426 25.65C-10.2453 25.3233 -9.57797 25.16 -8.84064 25.16C-8.10331 25.16 -7.43597 25.3233 -6.83864 25.65C-6.24131 25.9767 -5.76997 26.4433 -5.42464 27.05C-5.07931 27.6567 -4.90664 28.352 -4.90664 29.136C-4.90664 29.92 -5.08397 30.6153 -5.43864 31.222C-5.79331 31.8287 -6.27864 32.3 -6.89464 32.636C-7.50131 32.9627 -8.17331 33.126 -8.91064 33.126ZM-8.91064 31.74C-8.49997 31.74 -8.11731 31.642 -7.76264 31.446C-7.39864 31.25 -7.10464 30.956 -6.88064 30.564C-6.65664 30.172 -6.54464 29.696 -6.54464 29.136C-6.54464 28.576 -6.65197 28.1047 -6.86664 27.722C-7.08131 27.33 -7.36597 27.036 -7.72064 26.84C-8.07531 26.644 -8.45797 26.546 -8.86864 26.546C-9.27931 26.546 -9.66197 26.644 -10.0166 26.84C-10.362 27.036 -10.6373 27.33 -10.8426 27.722C-11.048 28.1047 -11.1506 28.576 -11.1506 29.136C-11.1506 29.9667 -10.9406 30.6107 -10.5206 31.068C-10.0913 31.516 -9.55464 31.74 -8.91064 31.74ZM-1.46691 26.588V30.858C-1.46691 31.1473 -1.40157 31.3573 -1.27091 31.488C-1.13091 31.6093 -0.897573 31.67 -0.570906 31.67H0.409094V33H-0.850906C-1.56957 33 -2.12024 32.832 -2.50291 32.496C-2.88557 32.16 -3.07691 31.614 -3.07691 30.858V26.588H-3.98691V25.286H-3.07691V23.368H-1.46691V25.286H0.409094V26.588H-1.46691ZM4.68008 33.126C4.07341 33.126 3.52741 33.0187 3.04208 32.804C2.56608 32.58 2.18808 32.2813 1.90808 31.908C1.62808 31.5253 1.47874 31.1007 1.46008 30.634H3.11208C3.14008 30.9607 3.29408 31.236 3.57408 31.46C3.86341 31.6747 4.22274 31.782 4.65208 31.782C5.10008 31.782 5.44541 31.698 5.68808 31.53C5.94008 31.3527 6.06608 31.1287 6.06608 30.858C6.06608 30.5687 5.92608 30.354 5.64608 30.214C5.37541 30.074 4.94141 29.92 4.34408 29.752C3.76541 29.5933 3.29408 29.4393 2.93008 29.29C2.56608 29.1407 2.24874 28.912 1.97808 28.604C1.71674 28.296 1.58608 27.89 1.58608 27.386C1.58608 26.9753 1.70741 26.602 1.95008 26.266C2.19274 25.9207 2.53808 25.65 2.98608 25.454C3.44341 25.258 3.96608 25.16 4.55408 25.16C5.43141 25.16 6.13608 25.384 6.66808 25.832C7.20941 26.2707 7.49875 26.8727 7.53608 27.638H5.94008C5.91208 27.2927 5.77208 27.0173 5.52008 26.812C5.26808 26.6067 4.92741 26.504 4.49808 26.504C4.07808 26.504 3.75608 26.5833 3.53208 26.742C3.30808 26.9007 3.19608 27.1107 3.19608 27.372C3.19608 27.5773 3.27074 27.75 3.42008 27.89C3.56941 28.03 3.75141 28.142 3.96608 28.226C4.18074 28.3007 4.49808 28.3987 4.91808 28.52C5.47808 28.6693 5.93541 28.8233 6.29008 28.982C6.65408 29.1313 6.96675 29.3553 7.22808 29.654C7.48941 29.9527 7.62475 30.3493 7.63408 30.844C7.63408 31.2827 7.51275 31.6747 7.27008 32.02C7.02741 32.3653 6.68208 32.636 6.23408 32.832C5.79541 33.028 5.27741 33.126 4.68008 33.126Z" fill="black"/>
</g>
<rect id="Rectangle 40" x="-366" y="-28" width="430" height="110" fill="#F0F4FC"/>
<g id="Group 12">
<g id="Iconsax/Outline/profilecircle">
<path id="Vector" d="M17.3204 18.6498H17.0774C13.8335 18.5551 11.404 16.1624 11.404 13.2154C11.404 10.2144 13.9907 7.76758 17.1632 7.76758C20.3357 7.76758 22.9224 10.2144 22.9224 13.2154C22.9253 14.6274 22.3463 15.9848 21.3084 16.9995C20.2704 18.0142 18.8552 18.6062 17.3633 18.6498H17.3204ZM17.1489 9.7818C15.1482 9.7818 13.5333 11.3229 13.5333 13.2019C13.529 14.087 13.8891 14.939 14.5373 15.5774C15.1855 16.2158 16.0709 16.5904 17.006 16.622C17.115 16.6078 17.2256 16.6078 17.3347 16.622C18.2604 16.5753 19.132 16.1947 19.77 15.5585C20.408 14.9223 20.7639 14.0789 20.7645 13.2019C20.7645 11.3229 19.1496 9.7818 17.1489 9.7818ZM17.1489 31.1136C13.3047 31.1136 9.63198 29.7618 6.78812 27.3015C6.66511 27.1944 6.57009 27.0617 6.51056 26.9139C6.45104 26.7661 6.42865 26.6072 6.44515 26.4498C6.63093 24.8411 7.68844 23.3406 9.4462 22.2321C13.7048 19.5555 20.6073 19.5555 24.8516 22.2321C26.6094 23.3541 27.6669 24.8411 27.8527 26.4498C27.8955 26.7742 27.7669 27.0852 27.5097 27.3015C24.6833 29.7556 20.9855 31.1162 17.1489 31.1136ZM8.68879 26.1794C11.06 28.0588 14.0554 29.0879 17.1489 29.0859C20.25 29.0859 23.2368 28.0585 25.609 26.1794C25.3518 25.3548 24.6658 24.5573 23.6512 23.9084C20.1357 21.6914 14.1764 21.6914 10.6323 23.9084C9.61769 24.5573 8.94602 25.3548 8.68879 26.1794Z" fill="#A1A1A1"/>
<path id="Vector_2" d="M17.1488 31.1136C8.67445 31.1136 1.78632 24.5978 1.78632 16.5815C1.78632 8.56515 8.67445 2.04935 17.1488 2.04935C25.6233 2.04935 32.5114 8.56515 32.5114 16.5815C32.5114 24.5978 25.6233 31.1136 17.1488 31.1136ZM17.1488 4.07709C9.86058 4.07709 3.92993 9.68716 3.92993 16.5815C3.92993 23.4758 9.86058 29.0859 17.1488 29.0859C24.4371 29.0859 30.3678 23.4758 30.3678 16.5815C30.3678 9.68716 24.4371 4.07709 17.1488 4.07709Z" fill="#A1A1A1"/>
</g>
</g>
</g>
</g>
<defs>
<filter id="filter0_d_0_1" x="-146" y="-28" width="212" height="124" filterUnits="userSpaceOnUse" color-interpolation-filters="sRGB">
<feFlood flood-opacity="0" result="BackgroundImageFix"/>
<feColorMatrix in="SourceAlpha" type="matrix" values="0 0 0 0 0 0 0 0 0 0 0 0 0 0 0 0 0 0 127 0" result="hardAlpha"/>
<feOffset dy="2"/>
<feGaussianBlur stdDeviation="10"/>
<feComposite in2="hardAlpha" operator="out"/>
<feColorMatrix type="matrix" values="0 0 0 0 0 0 0 0 0 0 0 0 0 0 0 0 0 0 0.05 0"/>
<feBlend mode="normal" in2="BackgroundImageFix" result="effect1_dropShadow_0_1"/>
<feBlend mode="normal" in="SourceGraphic" in2="effect1_dropShadow_0_1" result="shape"/>
</filter>
<clipPath id="clip0_0_1">
<rect x="-366" y="-850" width="430" height="932" rx="50" fill="white"/>
</clipPath>
</defs>
</svg>
